<svg width="136" height="20" fill="none" xmlns="http://www.w3.org/2000/svg"><path d="M1.396 3.528H5.3c1.365 0 2.405.213 3.12.64.715.427 1.072 1.147 1.072 2.16 0 .416-.059.779-.176 1.088a2.27 2.27 0 0 1-.512.784c-.213.213-.475.39-.784.528-.31.139-.65.245-1.024.32.96.117 1.685.379 2.176.784.49.405.736 1.024.736 1.856 0 .597-.117 1.11-.352 1.536-.235.416-.56.757-.976 1.024a4.82 4.82 0 0 1-1.472.576 9.058 9.058 0 0 1-1.84.176H1.396V3.528zm1.936 1.68v3.056h2.064c.64 0 1.157-.133 1.552-.4.395-.277.592-.71.592-1.296 0-.533-.181-.89-.544-1.072-.352-.192-.853-.288-1.504-.288h-2.16zm0 4.72v3.408H5.46c.363 0 .693-.027.992-.08.299-.064.555-.16.768-.288.213-.139.379-.315.496-.528.117-.224.176-.496.176-.816 0-.63-.208-1.067-.624-1.312-.405-.256-1.061-.384-1.968-.384H3.332zM15.273 15.16c-.587 0-1.13-.096-1.632-.288a3.821 3.821 0 0 1-1.312-.832 4.12 4.12 0 0 1-.864-1.36c-.203-.533-.304-1.147-.304-1.84 0-.693.101-1.307.304-1.84.213-.533.501-.981.864-1.344a3.53 3.53 0 0 1 1.312-.832 4.525 4.525 0 0 1 1.632-.288c.587 0 1.13.096 1.632.288.501.181.938.459 1.312.832.373.363.667.81.88 1.344.213.533.32 1.147.32 1.84 0 .693-.107 1.307-.32 1.84a3.994 3.994 0 0 1-.88 1.36c-.373.363-.81.64-1.312.832a4.526 4.526 0 0 1-1.632.288zm0-1.552c.64 0 1.168-.224 1.584-.672.427-.448.64-1.147.64-2.096 0-.939-.213-1.632-.64-2.08-.416-.459-.944-.688-1.584-.688-.63 0-1.157.23-1.584.688-.416.448-.624 1.141-.624 2.08 0 .95.208 1.648.624 2.096a2.1 2.1 0 0 0 1.584.672zM24.714 5.704c-.448 0-.838-.059-1.168-.176a2.465 2.465 0 0 1-.816-.48 2.095 2.095 0 0 1-.48-.736 2.606 2.606 0 0 1-.16-.912h1.632c0 .373.085.645.256.816.181.16.426.24.736.24s.55-.08.72-.24c.17-.17.256-.443.256-.816h1.648c0 .32-.054.624-.16.912a1.997 1.997 0 0 1-.496.736 2.265 2.265 0 0 1-.816.48 3.44 3.44 0 0 1-1.152.176zm-1.904 6.784 3.84-5.792h1.824V15h-1.84V9.24L22.826 15H20.97V6.696h1.84v5.792zM34.276 8.2V15h-1.857V8.2h-2.511V6.696h6.928V8.2h-2.56zM40.091 12.488l3.84-5.792h1.824V15h-1.84V9.24L40.107 15h-1.856V6.696h1.84v5.792zM55.184 15.16c-.672 0-1.274-.096-1.808-.288a3.923 3.923 0 0 1-1.36-.848 3.805 3.805 0 0 1-.864-1.36c-.202-.533-.304-1.141-.304-1.824 0-.672.102-1.275.304-1.808a3.614 3.614 0 0 1 2.24-2.192 5.193 5.193 0 0 1 1.824-.304c.576 0 1.078.064 1.504.192.438.128.784.288 1.04.48v1.536a4.207 4.207 0 0 0-1.088-.496 4.614 4.614 0 0 0-1.344-.176c-1.717 0-2.576.923-2.576 2.768 0 1.845.843 2.768 2.528 2.768.544 0 1.008-.059 1.392-.176a5.602 5.602 0 0 0 1.088-.48v1.536a4.515 4.515 0 0 1-1.04.48c-.416.128-.928.192-1.536.192zM63.097 7.128c0-.608.107-1.136.32-1.584.214-.459.512-.832.896-1.12a3.947 3.947 0 0 1 1.376-.672 6.822 6.822 0 0 1 1.808-.224h3.728V15h-1.952v-4.416h-1.776L64.57 15h-2.256l3.232-4.704c-.832-.203-1.45-.57-1.856-1.104-.394-.544-.592-1.232-.592-2.064zm6.176 1.84v-3.76h-1.792c-.725 0-1.306.144-1.744.432-.426.277-.64.757-.64 1.44 0 .672.192 1.157.576 1.456.384.288.928.432 1.632.432h1.968zM78.845 11.496h-3.504V15h-1.856V6.696h1.856v3.296h3.504V6.696h1.856V15h-1.856v-3.504zM82.558 13.496c.246-.213.438-.507.576-.88.15-.373.267-.837.352-1.392.086-.565.15-1.221.192-1.968.043-.747.08-1.6.112-2.56h6.08v6.8h1.248v3.872h-1.616L89.358 15H83.63l-.144 2.368h-1.632v-3.872h.704zm5.456 0V8.2H85.39c-.053 1.312-.144 2.4-.272 3.264-.117.853-.314 1.53-.592 2.032h3.488zM99.273 14.392c-.117.075-.261.16-.432.256-.17.085-.373.165-.608.24a6.158 6.158 0 0 1-1.872.272c-1.525 0-2.666-.379-3.424-1.136-.746-.757-1.12-1.819-1.12-3.184 0-.672.101-1.275.304-1.808a3.76 3.76 0 0 1 .848-1.344 3.555 3.555 0 0 1 1.296-.848 4.357 4.357 0 0 1 1.648-.304c.619 0 1.173.101 1.664.304.502.203.912.507 1.232.912.32.405.539.907.656 1.504.128.597.133 1.296.016 2.096h-5.744c.075.757.325 1.328.752 1.712.427.373 1.093.56 2 .56.661 0 1.21-.08 1.648-.24.448-.17.827-.347 1.136-.528v1.536zm-3.36-6.384c-.544 0-1.002.165-1.376.496-.373.33-.619.821-.736 1.472h3.904c.021-.672-.128-1.168-.448-1.488-.32-.32-.768-.48-1.344-.48zM103.78 11.624h-.72V15h-1.856V6.696h1.856v3.424h.784l2.64-3.424h1.952l-3.136 4L108.564 15h-2.192l-2.592-3.376zM113.231 15.16c-.672 0-1.274-.096-1.808-.288a3.933 3.933 0 0 1-1.36-.848 3.816 3.816 0 0 1-.864-1.36c-.202-.533-.304-1.141-.304-1.824 0-.672.102-1.275.304-1.808a3.62 3.62 0 0 1 2.24-2.192 5.193 5.193 0 0 1 1.824-.304c.576 0 1.078.064 1.504.192.438.128.784.288 1.04.48v1.536a4.19 4.19 0 0 0-1.088-.496 4.614 4.614 0 0 0-1.344-.176c-1.717 0-2.576.923-2.576 2.768 0 1.845.843 2.768 2.528 2.768.544 0 1.008-.059 1.392-.176a5.573 5.573 0 0 0 1.088-.48v1.536a4.508 4.508 0 0 1-1.04.48c-.416.128-.928.192-1.536.192zM123.16 3.528V15h-1.936V3.528h1.936zM125.615 3.528h3.872c.811 0 1.563.09 2.256.272.704.181 1.312.48 1.824.896.523.416.928.965 1.216 1.648.299.683.448 1.525.448 2.528 0 1.013-.149 1.904-.448 2.672-.288.757-.699 1.392-1.232 1.904a5.21 5.21 0 0 1-1.872 1.168 6.932 6.932 0 0 1-2.352.384h-3.712V3.528zm1.936 1.68v8.128h1.84a4.38 4.38 0 0 0 1.536-.256c.469-.17.869-.432 1.2-.784.341-.352.603-.8.784-1.344.192-.555.288-1.21.288-1.968 0-.747-.091-1.36-.272-1.84-.181-.49-.437-.88-.768-1.168a2.585 2.585 0 0 0-1.152-.592 5.732 5.732 0 0 0-1.456-.176h-2z" fill="#fff"/></svg>