<?xml version="1.0" standalone="no"?>
<!DOCTYPE svg PUBLIC "-//W3C//DTD SVG 20010904//EN"
 "http://www.w3.org/TR/2001/REC-SVG-20010904/DTD/svg10.dtd">
<svg version="1.0" xmlns="http://www.w3.org/2000/svg"
 width="512.000000pt" height="512.000000pt" viewBox="0 0 512.000000 512.000000"
 preserveAspectRatio="xMidYMid meet">
<metadata>
Created by potrace 1.14, written by Peter Selinger 2001-2017
</metadata>
<g transform="translate(0.000000,512.000000) scale(0.100000,-0.100000)"
fill="#000000" stroke="none">
<path d="M2549 5037 c-14 -18 -31 -43 -38 -57 l-12 -25 18 25 c47 65 66 82 75
68 8 -10 9 -10 6 1 -7 25 -22 21 -49 -12z"/>
<path d="M2673 4890 c17 -38 33 -68 35 -65 5 5 -54 135 -62 135 -2 0 10 -31
27 -70z"/>
<path d="M2430 4829 c-12 -23 -20 -43 -18 -45 3 -2 14 17 26 41 27 56 20 60
-8 4z"/>
<path d="M2045 4814 c-3 -20 -4 -38 -2 -40 3 -3 8 11 11 31 5 22 11 33 18 29
7 -4 8 -3 4 4 -13 21 -24 13 -31 -24z"/>
<path d="M3089 4797 c-73 -31 -183 -92 -238 -134 -25 -19 -51 -31 -58 -29 -13
5 -18 -6 -7 -16 3 -4 55 26 115 64 60 39 146 86 192 104 45 19 75 34 67 34 -8
0 -40 -11 -71 -23z"/>
<path d="M2725 4773 c4 -10 16 -42 27 -71 11 -29 22 -51 24 -49 6 5 -46 137
-53 137 -3 0 -2 -8 2 -17z"/>
<path d="M2176 4761 c56 -53 170 -139 175 -133 11 11 60 135 55 139 -2 2 -16
-28 -32 -67 -24 -62 -29 -69 -43 -57 -91 78 -152 127 -158 127 -4 0 -3 -4 3
-9z"/>
<path d="M3171 4664 c0 -11 3 -14 6 -6 3 7 2 16 -1 19 -3 4 -6 -2 -5 -13z"/>
<path d="M2017 4598 c-4 -29 -6 -80 -6 -113 1 -44 4 -30 10 49 9 116 6 153 -4
64z"/>
<path d="M3162 4585 c0 -16 2 -22 5 -12 2 9 2 23 0 30 -3 6 -5 -1 -5 -18z"/>
<path d="M3460 4493 c-270 -37 -320 -47 -320 -65 0 -22 -9 -23 107 7 124 32
163 39 163 27 0 -6 -30 -38 -66 -71 l-67 -61 56 0 c31 0 101 5 156 11 55 6
108 9 117 7 12 -2 -6 -21 -59 -61 -78 -58 -95 -80 -56 -70 17 5 20 3 13 -9
-11 -20 -239 -198 -253 -198 -14 0 -14 19 0 59 6 18 9 34 6 37 -3 3 -28 -6
-55 -20 l-51 -26 -40 27 c-39 25 -41 29 -41 75 l0 49 -35 -27 -35 -27 -83 32
c-119 45 -199 61 -314 61 -109 0 -206 -16 -295 -50 -64 -24 -81 -20 -143 34
-21 19 -42 33 -46 30 -3 -2 -3 -23 2 -46 16 -85 12 -105 -32 -153 -23 -25 -50
-45 -61 -45 -10 0 -58 33 -106 74 -48 41 -88 73 -90 72 -1 -2 11 -27 28 -57
33 -60 37 -87 15 -95 -13 -5 -13 -10 1 -36 9 -17 12 -34 7 -38 -4 -4 -39 -19
-78 -33 -38 -14 -108 -40 -155 -57 -123 -47 -193 -71 -197 -66 -6 6 113 103
215 174 50 36 92 70 92 75 0 12 -58 128 -71 142 -24 25 -5 23 29 -2 55 -43 63
-47 55 -26 -3 10 -39 87 -79 171 -40 83 -69 152 -66 152 4 0 41 -9 82 -20 41
-11 82 -19 90 -19 17 1 -157 48 -179 49 -13 0 -12 -14 3 -51 6 -14 -6 -18 -76
-28 -90 -13 -158 -40 -185 -75 -10 -11 -47 -36 -83 -53 -118 -58 -195 -136
-207 -207 -5 -35 -7 -36 -47 -36 -22 0 -138 11 -256 25 -259 30 -236 29 -260
5 -24 -24 -26 -67 -4 -150 8 -34 14 -64 12 -66 -3 -2 -53 5 -113 16 -152 28
-170 27 -210 -13 -18 -18 -39 -52 -46 -75 -11 -39 -8 -58 54 -309 92 -371 192
-800 216 -930 53 -289 74 -560 102 -1368 5 -165 13 -332 16 -372 l5 -71 -41
-21 c-23 -12 -41 -28 -41 -37 0 -25 97 -61 220 -82 l115 -19 32 -66 c23 -46
37 -65 47 -61 9 4 18 -6 26 -30 6 -20 16 -38 21 -41 9 -6 101 23 167 52 26 11
33 20 29 34 -4 14 7 29 39 55 36 30 47 34 59 24 13 -11 10 -19 -20 -60 -82
-112 -112 -233 -72 -294 53 -80 168 -117 365 -117 220 0 512 58 845 167 227
75 257 88 257 114 0 11 -6 23 -13 26 -7 2 -89 -17 -183 -44 -611 -178 -952
-175 -1009 6 -4 13 -4 43 -1 67 6 36 12 45 37 56 50 20 83 3 90 -49 12 -94 93
-132 279 -132 174 0 415 45 666 125 102 32 106 33 147 17 23 -8 51 -23 62 -33
11 -9 47 -24 80 -34 33 -9 74 -24 90 -34 69 -38 173 -74 201 -67 45 12 84 59
84 101 0 29 3 35 13 27 14 -12 146 41 160 65 5 8 22 30 39 49 26 30 36 34 78
34 52 0 82 -18 103 -60 11 -22 20 -25 74 -28 62 -3 62 -3 51 -28 -17 -36 -4
-39 44 -11 47 28 85 64 102 99 19 38 48 34 84 -11 35 -44 71 -64 146 -82 47
-12 51 -11 64 9 12 18 24 22 71 22 60 0 74 7 158 75 l49 40 166 18 c92 10 193
25 225 33 129 34 147 82 41 115 -21 7 -38 14 -38 16 0 2 -14 120 -31 261 -43
362 -48 455 -43 812 5 381 16 537 56 740 54 280 158 716 223 929 43 144 30
217 -48 251 -24 11 -47 15 -56 11 -20 -10 -106 -31 -146 -37 -57 -7 -85 -16
-85 -26 0 -6 -9 -8 -20 -5 -11 3 -44 -2 -73 -10 -28 -8 -73 -16 -100 -17 -26
-2 -50 -6 -53 -9 -4 -3 -15 -2 -25 4 -20 10 -23 4 -20 -33 2 -19 -24 -25 -34
-8 -3 6 0 10 8 10 7 0 14 7 14 15 0 17 -13 20 -22 5 -3 -5 -15 -6 -28 -1 -15
6 -31 4 -47 -5 -22 -12 -21 -19 3 -15 4 0 7 -4 7 -9 0 -17 -18 -11 -34 11 -11
16 -22 20 -41 17 -23 -5 -26 -3 -23 21 l3 26 180 17 c99 9 252 26 340 37 88
12 163 21 168 21 9 0 8 113 -2 212 -9 89 -36 138 -87 163 -28 13 -54 13 -250
-5 -121 -11 -240 -22 -266 -25 l-46 -5 -7 49 c-9 63 -35 92 -108 119 -77 29
-201 61 -265 69 -49 5 -56 9 -80 47 -48 76 -108 117 -187 126 -27 3 -57 4 -65
3z m-735 -314 c55 -8 75 -15 75 -27 0 -25 -94 -194 -115 -207 -11 -7 -67 -15
-125 -18 -100 -5 -253 -33 -332 -62 -31 -11 -38 -11 -42 1 -3 8 -12 14 -21 14
-15 0 -19 -11 -16 -39 4 -25 -23 -5 -31 25 -10 32 -1 150 13 175 11 21 169
103 229 119 104 28 252 35 365 19z m255 -79 c57 -29 70 -54 70 -131 0 -100 -8
-131 -34 -127 -14 2 -21 10 -21 25 0 31 -12 38 -34 19 -21 -19 -69 -13 -78 10
-9 25 37 224 52 224 3 0 23 -9 45 -20z m396 -129 c5 -5 33 -16 62 -26 76 -24
57 -31 -30 -10 -88 21 -98 26 -72 36 26 10 29 10 40 0z m66 -141 l93 -91 -110
81 c-136 101 -135 100 -102 100 20 0 49 -22 119 -90z m-2797 -10 c34 -5 141
-21 239 -34 98 -13 183 -29 188 -34 6 -6 8 -17 5 -26 -5 -12 -18 -14 -62 -11
-30 2 -60 7 -67 11 -6 4 -25 7 -42 6 -17 0 -33 3 -36 8 -3 5 -30 11 -60 14
-57 5 -280 74 -245 75 11 0 47 -4 80 -9z m2114 -59 c10 -7 1 -18 -39 -44 -29
-20 -59 -33 -66 -30 -22 8 -16 -5 10 -22 22 -15 27 -13 102 30 47 27 92 45
110 45 90 0 314 -145 314 -204 0 -12 9 -58 21 -102 17 -65 19 -96 14 -173 -12
-181 -51 -283 -159 -412 -45 -55 -61 -68 -93 -73 -52 -9 -70 -9 -126 2 -65 12
-147 -2 -170 -29 -17 -21 -18 -21 -37 -4 -16 15 -31 17 -88 12 -37 -3 -86 -13
-109 -22 -34 -14 -51 -15 -101 -5 -57 10 -66 15 -137 86 -41 42 -75 79 -75 83
0 4 -8 15 -19 25 -10 9 -26 34 -36 56 -15 34 -16 44 -5 71 8 17 25 45 38 61
13 16 22 31 20 33 -4 4 -31 -30 -72 -89 -13 -19 -14 -18 -30 13 -9 17 -15 40
-11 49 9 29 86 99 145 131 30 17 48 31 39 31 -25 0 -136 -78 -165 -116 -15
-19 -30 -32 -34 -29 -17 10 -33 152 -27 240 8 119 22 158 78 219 35 39 70 63
138 95 l91 43 60 -22 c33 -12 60 -26 60 -31 0 -5 12 -16 26 -26 26 -17 27 -17
55 15 16 18 29 37 29 43 0 5 -12 -3 -26 -18 -14 -15 -23 -23 -20 -16 4 6 -14
23 -40 38 -73 43 -55 48 186 52 74 2 141 -1 149 -6z m-2069 -51 c0 -4 -6 -13
-14 -19 -15 -13 -32 1 -22 17 6 10 36 11 36 2z m64 -18 c-36 -18 -74 -52 -74
-65 0 -6 11 0 24 12 15 14 30 20 37 16 7 -5 10 -4 5 3 -9 15 7 22 51 24 21 1
41 6 45 11 4 8 15 7 32 -1 19 -8 26 -8 26 -1 0 7 6 6 17 -2 9 -8 14 -9 10 -3
-5 9 3 10 28 4 19 -4 35 -5 35 -1 1 3 7 -5 15 -19 8 -14 14 -20 15 -14 0 12
25 12 53 -1 13 -5 17 -14 13 -32 -4 -13 -2 -31 3 -41 5 -9 11 -33 14 -52 2
-19 10 -55 16 -79 9 -29 9 -47 2 -54 -6 -6 -5 -17 5 -32 8 -12 16 -40 18 -62
3 -22 14 -62 26 -88 21 -47 38 -155 24 -155 -4 0 -18 10 -31 22 -13 12 -23 17
-23 12 0 -5 19 -22 43 -39 25 -17 36 -22 27 -10 -13 16 -13 18 0 13 8 -2 16
-16 17 -29 3 -43 11 -67 33 -96 11 -16 22 -44 25 -62 2 -19 8 -37 13 -40 13
-8 46 -75 34 -67 -6 4 -13 2 -17 -4 -3 -5 -1 -10 6 -10 21 0 49 -32 49 -57 0
-12 4 -23 9 -23 12 0 72 -100 65 -111 -3 -5 -1 -9 4 -9 13 0 25 -45 27 -100 0
-25 4 -50 7 -55 3 -6 8 -37 9 -70 2 -33 6 -62 9 -65 3 -3 11 -36 17 -75 9 -54
9 -71 0 -77 -9 -6 -8 -8 2 -8 8 0 11 -7 8 -20 -3 -11 -2 -20 3 -20 14 0 18
-51 5 -64 -10 -10 -9 -15 5 -24 10 -6 21 -26 25 -44 4 -18 17 -64 30 -103 30
-93 38 -175 19 -210 -13 -25 -12 -26 1 -15 13 11 15 5 14 -54 -2 -65 -2 -66
-28 -61 -26 5 -26 5 -2 -5 15 -7 21 -15 17 -26 -3 -9 -6 -23 -6 -31 0 -28 -26
4 -51 63 -16 37 -31 56 -46 60 -21 6 -40 38 -35 57 1 5 -2 6 -7 3 -5 -3 -12 2
-16 12 -5 14 -10 10 -26 -21 -11 -20 -24 -37 -30 -37 -6 0 -7 -4 -4 -10 7 -11
-31 -90 -43 -90 -5 0 -19 -23 -32 -50 -13 -28 -28 -50 -33 -50 -5 0 -14 13
-20 30 -8 21 -24 35 -57 49 -79 34 -99 36 -124 12 l-23 -21 -25 20 c-15 11
-28 20 -31 20 -3 0 -15 -15 -26 -32 -30 -49 -72 -93 -83 -90 -6 2 -8 -3 -5
-11 9 -25 -14 -109 -28 -103 -8 3 -16 0 -19 -7 -3 -8 -9 -6 -19 6 -8 10 -21
16 -28 15 -8 -2 -14 4 -14 12 0 8 -9 19 -20 23 -16 7 -17 10 -5 17 8 5 23 10
33 10 9 0 17 4 17 8 0 5 -10 8 -21 8 -12 -1 -24 5 -27 13 -3 10 2 13 22 9 14
-3 26 -1 26 3 0 5 9 18 20 29 11 11 16 20 11 20 -5 0 -16 -6 -23 -14 -8 -7
-25 -17 -37 -21 -21 -6 -23 -5 -18 14 3 11 1 21 -4 21 -5 0 -9 -4 -9 -9 0 -15
-33 -22 -41 -9 -5 7 -6 22 -3 33 5 20 5 20 -10 1 -11 -14 -13 -23 -5 -32 10
-13 -6 -32 -18 -20 -4 3 -1 6 6 6 8 0 7 5 -3 16 -18 17 -21 34 -7 34 13 0 19
58 7 70 -8 8 -6 14 7 21 9 6 17 15 17 21 0 7 -5 6 -15 -2 -21 -17 -89 -4 -81
16 3 8 -1 17 -9 20 -7 3 -17 19 -20 35 -4 16 -12 29 -18 29 -7 0 -4 5 5 11 20
11 24 29 7 29 -5 0 -7 -4 -4 -10 3 -5 1 -10 -4 -10 -14 0 -13 11 3 33 7 9 21
17 30 17 9 0 16 4 16 9 0 33 118 -4 127 -40 3 -10 12 -20 20 -24 13 -4 14 -3
4 9 -8 10 -9 16 -1 21 5 3 10 12 9 18 0 9 -2 9 -6 0 -9 -23 -25 -13 -21 12 4
16 1 22 -6 17 -20 -12 -35 -10 -48 6 -12 15 -11 16 5 3 9 -8 17 -9 17 -3 0 6
-6 12 -12 15 -10 3 -10 7 1 20 7 9 17 14 23 11 5 -3 16 0 25 8 10 7 14 8 10 1
-13 -21 19 -8 59 25 21 18 42 32 47 32 4 0 5 5 2 10 -5 8 -11 8 -19 1 -9 -8
-18 -6 -31 9 -16 17 -20 18 -45 5 -35 -18 -78 -69 -86 -101 -3 -13 -10 -24
-15 -24 -13 0 -11 12 8 56 9 22 15 51 15 65 -1 15 2 37 7 50 l9 24 10 -27 c10
-25 13 -26 41 -15 21 7 26 14 18 19 -16 10 53 -2 76 -14 9 -5 17 -6 17 -3 0 3
10 0 23 -6 l22 -12 -19 22 c-17 18 -17 21 -3 15 9 -3 17 -2 17 4 0 11 -18 11
-36 0 -15 -10 -52 1 -58 18 -3 8 -12 14 -21 14 -8 0 -15 3 -16 8 -6 58 -2 73
28 109 26 30 35 35 45 25 6 -6 19 -12 28 -12 16 0 49 -32 62 -60 5 -13 7 -12
7 2 1 9 -6 23 -14 32 -17 17 -20 36 -4 36 5 0 7 -4 4 -10 -4 -6 1 -7 11 -3 11
4 13 8 6 11 -8 2 -7 9 4 20 13 13 14 17 3 21 -7 2 -19 -6 -27 -18 -16 -24 -32
-28 -32 -8 0 8 -9 22 -20 32 -11 10 -20 24 -20 32 0 8 -5 11 -11 8 -7 -5 -5
-13 5 -24 9 -10 16 -25 16 -35 0 -14 -3 -15 -22 -5 -13 7 -31 23 -41 36 -10
12 -26 23 -35 23 -14 0 -14 -1 0 -12 8 -7 18 -21 21 -31 6 -15 3 -16 -13 -7
-31 17 -72 11 -99 -12 -22 -20 -23 -20 -8 -2 9 11 14 24 10 27 -3 4 -14 -4
-23 -19 -16 -23 -18 -23 -24 -8 -4 10 -4 15 0 11 18 -18 110 161 120 230 5 44
4 52 -15 65 -19 14 -20 17 -6 28 13 11 20 11 39 0 30 -15 46 -6 46 26 0 26 18
32 38 12 9 -9 12 -9 12 3 0 8 11 30 25 49 14 19 23 40 20 48 -2 7 0 10 5 7 6
-3 10 -1 10 4 0 6 -5 11 -10 11 -7 0 -7 7 0 21 9 16 8 25 -6 40 -10 11 -12 19
-5 19 8 0 8 5 0 18 -11 17 -45 22 -66 9 -7 -4 -14 1 -18 13 -5 16 -10 18 -20
10 -14 -12 -31 3 -21 19 3 5 -4 12 -17 15 l-22 7 23 11 c19 9 25 9 33 -3 7
-11 9 -10 9 7 0 15 -6 20 -21 20 -12 -1 -24 5 -27 13 -3 10 2 13 22 9 22 -5
29 -1 37 19 8 23 10 23 34 7 30 -20 49 -50 40 -64 -4 -6 -1 -9 6 -8 7 2 15 -5
17 -14 4 -22 -11 -23 -32 -2 -9 8 -16 12 -16 7 0 -16 23 -33 44 -33 18 0 21 7
21 39 1 35 -1 37 -13 23 -7 -10 -11 -11 -7 -4 4 7 -11 28 -37 52 -24 22 -38
40 -31 40 6 0 15 -5 18 -10 4 -6 10 -8 15 -5 5 3 12 -1 17 -9 7 -12 10 -12 23
2 13 14 12 15 -3 9 -9 -3 -19 -2 -22 3 -4 6 2 10 11 10 16 0 16 2 -2 23 -45
51 -46 105 -2 157 21 24 12 27 -14 3 -10 -9 -18 -25 -18 -35 0 -11 -4 -17 -9
-14 -5 4 -7 -4 -4 -16 4 -20 3 -21 -9 -7 -7 9 -19 14 -26 11 -16 -5 -42 16
-42 35 0 13 3 13 15 3 12 -10 15 -10 15 0 0 16 37 62 63 78 l22 13 -22 -6
c-14 -4 -21 -2 -19 7 3 24 17 38 37 38 10 0 19 5 19 11 0 5 -5 7 -11 3 -6 -3
-15 0 -20 7 -7 11 -10 9 -15 -8 -7 -24 -24 -31 -24 -10 -1 6 -6 2 -13 -11 -7
-12 -17 -19 -21 -15 -5 4 -7 -11 -4 -34 4 -46 -7 -57 -21 -20 -12 32 -2 97 14
91 7 -3 15 5 19 19 4 19 15 26 41 31 19 4 39 4 44 1 5 -3 16 2 25 10 13 14 16
13 25 -2 6 -11 11 -13 11 -5 0 8 5 10 13 6 8 -5 8 -2 -2 9 -7 9 -10 17 -6 17
4 0 2 7 -5 15 -7 8 -18 15 -24 15 -6 0 -3 -7 7 -14 10 -8 14 -16 10 -19 -14
-9 -29 6 -28 28 0 11 -8 21 -17 23 -10 2 -18 -1 -18 -7 0 -6 5 -11 10 -11 15
0 12 -26 -5 -40 -12 -10 -18 -10 -30 0 -22 18 -63 -13 -92 -68 -12 -24 -24
-38 -28 -33 -3 6 3 28 14 49 11 22 17 43 13 47 -4 3 -2 5 3 4 13 -4 96 57 88
65 -3 3 -12 1 -18 -4 -8 -7 -17 -4 -30 10 -16 17 -20 18 -45 5 -32 -17 -78
-68 -91 -103 -5 -14 -12 -22 -16 -19 -3 3 2 25 12 49 10 24 17 55 16 69 0 15
3 37 8 50 l9 24 10 -27 c10 -25 13 -26 41 -15 21 7 26 14 18 19 -16 10 53 -2
76 -14 9 -5 17 -6 17 -3 0 3 10 0 23 -6 l22 -12 -19 22 c-17 18 -17 21 -3 15
9 -3 17 -2 17 4 0 11 -18 11 -36 0 -15 -10 -52 1 -58 18 -3 8 -12 14 -21 14
-8 0 -15 3 -16 8 -6 58 -2 73 28 109 26 30 35 35 45 25 6 -6 19 -12 28 -12 16
0 49 -32 62 -60 5 -13 7 -12 7 2 1 9 -6 23 -14 32 -17 17 -20 36 -4 36 5 0 7
-4 4 -10 -4 -6 1 -7 11 -3 11 4 13 8 6 11 -8 2 -7 9 4 20 13 13 14 17 3 21 -7
2 -19 -6 -27 -18 -16 -24 -32 -28 -32 -8 0 8 -9 22 -20 32 -11 10 -20 24 -20
32 0 8 -5 11 -11 8 -7 -5 -5 -13 5 -24 9 -10 16 -25 16 -35 0 -14 -3 -15 -22
-5 -13 7 -31 23 -41 36 -10 12 -26 23 -35 23 -14 0 -14 -1 0 -12 8 -7 18 -21
21 -31 6 -15 3 -16 -13 -7 -31 17 -72 11 -99 -12 -22 -20 -23 -20 -8 -2 9 11
14 24 10 27 -3 4 -14 -4 -23 -19 -14 -21 -18 -23 -24 -9 -3 9 -2 14 3 11 4 -3
25 23 45 58 34 59 38 62 68 58 l31 -5 -29 -15z m-122 -12 c-2 -16 -8 -27 -13
-24 -5 3 -8 8 -6 12 2 4 7 15 10 25 10 26 14 20 9 -13z m-22 0 c0 -5 -2 -10
-4 -10 -3 0 -8 5 -11 10 -3 6 -1 10 4 10 6 0 11 -4 11 -10z m11 -57 c13 -16
12 -17 -3 -4 -10 7 -18 15 -18 17 0 8 8 3 21 -13z m4069 13 c0 -2 -8 -10 -17
-17 -16 -13 -17 -12 -4 4 13 16 21 21 21 13z m-75 -64 c-9 -2 -23 2 -31 9 -12
10 -13 9 -8 -7 4 -10 14 -27 21 -36 8 -9 12 -22 8 -28 -9 -14 -28 -1 -21 16 3
8 0 11 -10 7 -8 -3 -12 -8 -10 -11 3 -3 2 -10 -3 -16 -6 -8 3 -12 30 -14 37
-2 39 -1 39 27 0 35 19 81 33 81 5 0 4 -7 -3 -15 -6 -8 -9 -18 -6 -23 2 -4 1
-25 -4 -45 -4 -20 -4 -35 0 -32 5 3 16 -16 26 -42 9 -27 28 -59 43 -72 15 -15
19 -22 9 -18 -9 3 -19 1 -21 -6 -2 -7 -3 -4 -2 5 2 10 -3 22 -11 28 -7 7 -18
27 -24 46 -13 40 -46 64 -46 34 0 -10 4 -18 9 -17 5 1 12 -4 15 -12 3 -9 0
-11 -8 -6 -9 6 -9 3 -1 -14 7 -11 16 -21 22 -21 6 0 7 -5 4 -10 -3 -6 1 -13
10 -17 16 -6 16 -7 0 -16 -14 -8 -15 -11 -4 -18 11 -7 10 -9 -3 -9 -10 0 -18
5 -18 10 0 6 -9 10 -20 10 -13 0 -18 5 -13 15 3 9 -2 24 -12 35 -12 14 -15 24
-8 32 6 9 5 21 -3 38 -11 20 -14 21 -14 6 0 -15 -3 -16 -14 -7 -10 8 -16 9
-21 1 -9 -15 -35 -12 -35 5 0 9 -6 12 -17 8 -11 -5 -13 -8 -4 -11 8 -3 7 -8
-6 -18 -15 -12 -15 -13 -1 -8 17 6 19 -10 5 -33 -5 -7 -4 -13 1 -13 5 0 7 -12
4 -26 -4 -20 1 -31 17 -43 26 -20 21 -42 -14 -61 -19 -10 -22 -16 -14 -26 6
-7 8 -17 5 -23 -3 -5 0 -11 6 -14 7 -2 1 -4 -15 -3 -23 1 -25 3 -12 12 14 10
12 12 -9 10 -15 0 -26 -4 -26 -8 0 -10 42 -38 57 -38 19 0 28 48 12 66 -9 11
-2 10 24 -5 35 -20 38 -20 45 -4 17 40 48 83 57 80 6 -2 14 -18 20 -35 6 -20
16 -32 27 -32 15 0 16 -4 6 -30 -5 -17 -15 -33 -21 -37 -6 -4 -8 0 -4 10 8 23
0 22 -12 -1 -8 -14 -5 -18 11 -19 38 -3 41 -20 9 -44 -22 -16 -28 -25 -19 -31
10 -6 6 -13 -12 -28 l-25 -20 28 10 c21 7 27 7 27 -5 0 -7 -5 -17 -12 -21 -7
-5 -8 -3 -3 6 6 9 4 11 -5 5 -10 -6 -9 -11 4 -21 13 -9 14 -13 4 -17 -7 -3 0
-6 15 -6 19 -1 26 3 21 11 -5 7 -3 8 6 3 7 -4 16 -2 22 6 8 12 9 12 6 0 -2 -8
-13 -19 -24 -25 -26 -15 -35 -28 -29 -45 4 -9 0 -11 -12 -7 -14 6 -13 2 5 -17
26 -27 31 -73 7 -63 -8 3 -21 9 -29 12 -10 4 -13 0 -11 -13 2 -10 4 -18 5 -18
1 0 3 -12 4 -27 2 -28 -7 -37 -19 -18 -4 6 -1 17 5 25 9 11 9 15 1 15 -6 0
-11 -5 -11 -11 0 -5 -5 -7 -12 -3 -13 8 -3 -12 20 -38 9 -11 12 -27 8 -43 -5
-18 -3 -24 4 -20 6 4 18 1 26 -6 23 -19 29 -2 9 27 -17 26 -17 27 4 21 21 -5
29 7 11 18 -17 11 -11 35 9 35 24 0 47 -25 31 -35 -6 -4 -9 -12 -7 -18 2 -7
-2 -18 -9 -25 -7 -7 -10 -20 -7 -29 4 -11 3 -14 -5 -9 -8 5 -12 0 -12 -14 0
-14 4 -19 13 -14 6 4 3 -2 -7 -14 -23 -26 -11 -29 18 -5 18 15 18 14 -1 -8
-13 -14 -23 -31 -23 -38 0 -7 -4 -10 -10 -6 -5 3 -7 12 -3 20 3 9 -1 15 -11
15 -17 0 -22 -15 -7 -24 5 -3 11 -17 13 -30 l5 -24 -29 21 c-15 11 -28 29 -28
39 0 10 -5 18 -11 18 -6 0 -9 8 -7 17 2 9 6 15 9 12 7 -5 39 20 39 31 0 4 -17
-1 -37 -11 -21 -10 -46 -19 -58 -19 -15 -1 -11 -5 15 -18 52 -25 46 -47 -12
-47 -25 0 -44 -3 -41 -8 3 -5 -6 -20 -18 -34 -20 -23 -18 -22 16 5 44 34 85
35 85 1 0 -24 -18 -33 -36 -18 -16 13 -27 7 -30 -16 -3 -21 14 -29 32 -14 11
9 18 9 26 1 8 -8 17 -8 30 -1 23 12 23 12 32 -24 6 -26 5 -27 -31 -25 -21 2
-41 7 -44 11 -3 4 -10 -3 -17 -17 -10 -22 -9 -23 11 -19 22 5 22 5 2 -10 -22
-18 -36 -21 -34 -9 1 4 1 15 0 25 -1 24 -21 11 -21 -14 0 -12 -4 -17 -11 -13
-8 5 -10 -6 -7 -35 4 -44 -4 -52 -22 -23 -9 14 -11 14 -7 1 3 -9 0 -23 -6 -30
-7 -8 -8 -11 -3 -7 5 4 17 3 27 -3 15 -7 19 -6 19 5 0 20 67 76 91 76 24 0 69
-43 69 -66 0 -14 -3 -14 -15 -4 -9 7 -13 15 -10 18 7 7 -15 32 -29 32 -6 0 -3
-5 7 -11 15 -9 16 -13 5 -27 -11 -13 -11 -15 2 -7 10 5 8 1 -4 -13 -20 -23
-24 -88 -7 -120 6 -11 8 -22 5 -25 -3 -3 0 -8 7 -13 8 -4 10 -3 5 4 -9 14 4
15 24 2 13 -8 12 -10 -3 -10 -11 0 -15 -5 -11 -11 4 -8 0 -7 -15 1 -12 6 -29
28 -39 48 -9 20 -18 39 -19 41 -1 2 -9 -2 -18 -9 -22 -18 -18 -3 5 20 11 11
20 28 20 39 0 10 9 30 21 45 17 22 18 26 4 26 -9 0 -13 5 -10 10 11 18 -11 10
-30 -10 -17 -19 -17 -20 0 -20 14 0 15 -3 5 -15 -6 -8 -9 -19 -6 -24 4 -5 2
-12 -4 -16 -6 -4 -7 -11 -4 -17 4 -6 2 -8 -4 -4 -11 7 -52 -44 -52 -66 0 -11
2 -11 9 1 11 17 31 6 31 -18 0 -10 12 -27 28 -39 15 -12 36 -28 47 -36 13 -10
15 -15 6 -16 -7 0 -30 13 -51 30 l-37 30 -26 -24 c-21 -19 -23 -25 -11 -30 9
-4 18 3 24 20 l10 25 29 -22 c36 -26 45 -55 23 -69 -10 -5 -13 -10 -8 -10 5 0
3 -6 -3 -14 -9 -11 -9 -14 1 -13 48 2 67 -4 62 -18 -4 -8 -11 -12 -18 -8 -8 5
-8 3 1 -8 15 -19 12 -68 -4 -62 -16 6 -17 20 -2 25 6 2 5 14 -5 33 -9 17 -16
24 -16 17 0 -9 -7 -11 -20 -7 -11 4 -20 2 -20 -4 0 -17 -20 -13 -27 5 -4 10 1
22 11 29 11 8 13 15 7 20 -6 3 -16 -5 -23 -19 -13 -31 -38 -34 -38 -6 0 11 -7
20 -15 20 -8 0 -15 -5 -15 -11 0 -5 -4 -8 -9 -4 -6 3 -8 -6 -5 -20 3 -16 0
-25 -8 -25 -9 0 -9 -3 2 -10 9 -5 19 -5 27 2 8 6 17 8 21 4 4 -4 -1 -14 -11
-21 -12 -8 -14 -15 -8 -20 6 -3 12 -16 12 -28 1 -17 2 -18 6 -4 8 29 31 21 25
-9 -4 -20 1 -32 19 -45 l24 -19 -31 -28 c-16 -16 -29 -33 -27 -39 4 -12 -25
-26 -38 -17 -5 3 -9 -4 -9 -16 0 -12 4 -19 9 -15 5 3 17 -2 25 -11 9 -8 16
-12 16 -8 0 3 6 2 13 -4 10 -9 14 -3 15 26 3 45 5 46 31 32 18 -9 22 -7 30 13
5 12 16 29 25 36 9 7 16 20 16 27 0 8 5 14 11 14 5 0 7 -5 4 -11 -11 -17 -17
-72 -8 -66 4 3 8 -35 9 -84 0 -73 -2 -89 -14 -87 -25 5 -24 -39 1 -57 l22 -17
-25 8 c-14 5 -42 8 -62 7 -21 0 -38 0 -38 2 0 17 20 41 61 71 27 20 49 40 49
45 0 6 -4 7 -10 4 -5 -3 -10 -1 -10 4 0 6 4 11 10 11 6 0 6 9 1 23 -9 24 -23
27 -29 5 -2 -9 0 -8 7 2 10 13 11 13 11 0 0 -29 -39 -100 -55 -100 -18 0 -19
11 -2 29 10 11 9 12 -2 6 -11 -6 -13 -3 -8 14 4 17 3 20 -7 12 -7 -6 -16 -8
-19 -4 -4 3 -7 -1 -7 -11 0 -9 4 -15 9 -11 13 8 8 -59 -5 -76 -15 -20 -27 -52
-25 -66 1 -7 -4 -13 -12 -13 -7 0 -22 -7 -33 -16 -18 -15 -18 -15 3 -5 12 6
39 12 60 12 21 1 30 3 21 6 -10 2 -18 9 -18 14 0 12 48 1 77 -17 20 -13 22
-12 16 3 -4 11 -3 14 5 9 7 -4 12 -16 12 -28 0 -15 -5 -19 -17 -14 -12 4 -10
0 5 -10 21 -16 30 -53 15 -68 -8 -7 -63 50 -63 65 0 6 -5 7 -11 4 -7 -5 -5
-13 5 -24 18 -20 21 -41 6 -41 -6 0 -24 14 -42 30 -33 32 -62 42 -35 12 20
-22 24 -53 5 -34 -7 7 -26 12 -43 12 -33 0 -75 -24 -63 -36 4 -4 14 -2 21 4
21 18 71 0 75 -26 4 -27 19 -29 27 -3 14 44 71 36 111 -16 22 -30 25 -39 16
-54 -15 -24 -15 -32 -1 -23 7 4 10 1 7 -7 -2 -8 -21 -19 -41 -26 -53 -18 -111
3 -115 42 -4 34 -31 77 -43 70 -4 -3 -5 -13 -2 -23 4 -9 -14 6 -40 33 -33 35
-46 56 -43 70 5 18 4 19 -8 3 -12 -16 -15 -16 -36 8 -13 13 -30 22 -36 20 -14
-5 -74 15 -74 24 0 4 9 16 19 27 11 12 18 23 16 25 -3 2 1 22 7 44 9 34 12 36
19 19 5 -13 6 -5 2 20 -3 22 -17 57 -30 77 -15 21 -22 42 -17 50 5 10 4 10 -6
1 -10 -9 -17 -9 -34 2 -44 28 -174 46 -296 41 -64 -3 -123 -8 -131 -10 -28
-10 -94 -11 -92 -1 1 6 3 17 6 25 2 8 2 12 0 8 -3 -5 -9 -8 -14 -8 -11 0 -12
63 -2 74 4 4 8 20 9 36 1 16 5 37 9 47 5 10 10 36 11 57 2 22 11 47 19 55 15
15 18 14 32 -4 9 -12 13 -14 11 -5 -3 8 -14 20 -26 26 -19 9 -20 13 -7 37 8
15 11 27 7 27 -4 0 0 5 8 10 11 7 12 10 2 10 -9 0 -11 7 -6 22 3 12 6 41 6 65
-1 40 25 116 91 267 12 28 21 55 19 60 -2 6 0 7 4 3 4 -4 15 16 24 45 11 34
22 52 30 50 10 -2 11 0 2 10 -8 10 -3 38 19 111 17 53 34 95 38 93 4 -3 8 10
8 27 1 37 26 90 38 79 4 -4 3 3 -4 15 -12 24 -5 53 13 53 6 0 11 12 10 28 -1
35 6 53 18 46 7 -5 7 -1 1 11 -7 11 -6 29 3 54 7 20 13 45 14 56 0 12 8 37 19
58 10 20 15 34 10 31 -13 -8 -11 10 4 25 10 11 10 13 0 7 -9 -5 -13 0 -13 14
0 12 4 19 8 16 4 -2 14 5 22 17 12 20 12 21 -3 8 -20 -16 -21 -10 -4 32 8 18
12 37 10 44 -3 7 1 20 7 30 9 15 10 14 5 -7 -5 -22 -4 -23 5 -7 8 12 8 22 2
30 -6 7 -6 21 -1 35 8 20 13 22 60 18 28 -3 57 -10 64 -16 10 -8 13 -6 11 7 0
12 6 18 19 18 11 0 19 -5 18 -11 -1 -7 13 -10 37 -8 26 2 40 -1 40 -9 0 -7 5
-4 11 6 10 17 12 17 23 2 11 -15 12 -13 10 13 -1 19 4 33 12 36 19 7 29 -36
15 -63 -9 -17 -8 -24 9 -41 22 -22 27 -46 8 -34 -9 5 -9 2 1 -9 18 -23 21 -22
21 13 0 20 -5 30 -15 30 -20 0 -19 16 2 24 14 6 14 9 4 15 -7 5 -11 21 -9 36
2 21 9 29 26 30 26 2 29 -10 5 -24 -16 -9 -16 -10 5 -11 13 0 22 6 22 15 0 17
20 20 38 5 9 -7 9 -7 2 2 -22 26 -8 26 35 0 30 -17 40 -28 30 -30z m-441 30
c3 -5 -1 -9 -9 -9 -8 0 -12 4 -9 9 3 4 7 8 9 8 2 0 6 -4 9 -8z m214 -4 c-6
-18 -25 -21 -31 -5 -3 8 3 13 15 14 10 1 18 -3 16 -9z m322 2 c-8 -5 -12 -10
-7 -10 4 0 0 -11 -9 -25 -13 -20 -13 -25 -3 -25 12 0 12 -2 0 -9 -7 -5 -11
-13 -7 -19 3 -6 2 -13 -4 -17 -6 -4 -10 6 -10 24 0 16 -3 37 -7 47 -5 14 -3
16 11 11 11 -4 15 -3 10 4 -7 11 12 29 31 29 6 0 3 -5 -5 -10z m-3965 -30 c23
0 40 -24 29 -41 -3 -6 -11 -5 -20 2 -11 9 -21 5 -49 -20 -20 -17 -45 -31 -55
-31 -20 0 -20 0 0 20 11 11 20 25 20 31 0 15 44 57 48 47 2 -5 14 -8 27 -8z
m2481 -55 c7 -19 14 -54 13 -77 l-1 -43 -18 55 c-29 86 -25 137 6 65z m-2609
3 c-3 -8 -6 -5 -6 6 -1 11 2 17 5 13 3 -3 4 -12 1 -19z m95 -64 c-19 -26 -28
-29 -38 -12 -4 6 -3 8 3 5 11 -7 35 15 32 29 -3 20 2 28 10 15 6 -10 4 -22 -7
-37z m4038 37 c0 -6 -4 -12 -8 -15 -5 -3 -9 1 -9 9 0 8 4 15 9 15 4 0 8 -4 8
-9z m-53 -48 c-3 -10 -5 -4 -5 12 0 17 2 24 5 18 2 -7 2 -21 0 -30z m-2736
-14 c-6 -24 -9 -28 -10 -12 -1 24 9 56 16 50 2 -3 0 -20 -6 -38z m1329 -2 c-1
-12 -9 -38 -20 -57 l-19 -35 -1 43 c0 47 15 86 31 77 5 -4 9 -16 9 -28z m1470
18 c-7 -8 -10 -21 -7 -30 4 -8 3 -16 -1 -19 -12 -7 -12 37 0 51 6 7 13 13 15
13 3 0 0 -7 -7 -15z m-2818 -68 c12 -60 28 -210 23 -216 -3 -3 -12 2 -20 10
-11 11 -13 22 -6 46 8 27 4 43 -23 100 -35 75 -36 106 -3 101 16 -2 23 -13 29
-41z m-1262 23 c0 -5 -2 -10 -4 -10 -3 0 -8 5 -11 10 -3 6 -1 10 4 10 6 0 11
-4 11 -10z m0 -52 c0 -5 -6 -8 -14 -8 -9 0 -12 7 -9 21 4 16 8 17 14 7 5 -7 9
-16 9 -20z m3854 9 c4 4 4 0 1 -9 -4 -9 0 -18 9 -21 19 -8 22 -61 4 -55 -7 3
-13 11 -14 19 -2 34 -5 39 -18 39 -8 0 -14 9 -13 19 1 14 5 17 13 11 6 -6 14
-7 18 -3z m-3745 -46 c11 -19 4 -34 -10 -25 -4 2 -6 11 -2 19 3 8 0 15 -6 15
-6 0 -11 -5 -11 -12 0 -6 -3 -9 -6 -5 -8 7 4 27 16 27 5 0 14 -8 19 -19z
m-180 -50 c6 -19 9 -36 7 -39 -3 -2 -8 7 -11 21 -4 15 -13 31 -21 38 -8 6 -11
16 -8 21 8 13 19 0 33 -41z m3928 -17 c-9 -9 -28 6 -21 18 4 6 10 6 17 -1 6
-6 8 -13 4 -17z m-3890 -26 c-3 -8 -6 -5 -6 6 -1 11 2 17 5 13 3 -3 4 -12 1
-19z m2613 -12 c0 -14 -4 -28 -10 -31 -6 -4 -10 7 -10 24 0 17 5 31 10 31 6 0
10 -11 10 -24z m-2620 -10 c0 -2 -7 -7 -16 -10 -8 -3 -12 -2 -9 4 6 10 25 14
25 6z m35 -6 c3 -5 14 -10 23 -10 18 -1 72 -71 72 -93 0 -7 -5 -18 -12 -25 -9
-9 -9 -12 3 -12 22 -1 -33 -29 -58 -30 -12 0 -25 -4 -28 -10 -3 -5 -16 -10
-28 -9 -20 1 -20 2 3 8 15 5 24 14 24 25 -1 11 2 14 10 7 8 -7 11 3 10 36 -1
35 -7 51 -25 65 -13 11 -19 17 -13 14 19 -10 25 23 6 33 -9 6 -12 11 -5 11 6
0 15 -4 18 -10z m4064 -44 c9 -10 7 -17 -6 -27 -16 -13 -17 -12 -4 4 12 16 9
22 -12 18 -5 -1 -6 3 -2 9 8 13 10 13 24 -4z m-3892 -11 c0 -8 -4 -12 -9 -9
-4 3 -8 -4 -8 -15 0 -12 -4 -21 -10 -21 -13 0 -13 16 0 41 13 22 27 25 27 4z
m-192 -16 c-4 -5 -1 -9 6 -9 8 0 7 -5 -2 -17 -12 -15 -12 -16 6 -10 20 7 20 7
1 -8 -11 -8 -25 -15 -30 -15 -7 0 -8 3 -1 8 16 11 17 34 3 43 -11 7 -11 9 0 9
7 0 10 5 6 12 -4 7 -3 8 5 4 6 -4 9 -12 6 -17z m2802 -5 c5 -14 -11 -33 -28
-34 -9 0 -18 37 -11 44 11 12 33 6 39 -10z m-55 -31 c17 -20 88 -158 88 -170
-1 -5 -16 21 -34 57 -19 36 -46 78 -60 93 -14 15 -26 30 -26 33 0 10 18 3 32
-13z m122 -9 c3 -9 5 -32 4 -52 -1 -36 -1 -36 -7 8 -5 37 -9 44 -25 42 -11 -2
-15 1 -11 7 9 16 32 13 39 -5z m1156 -24 c0 -10 6 -21 13 -23 9 -4 9 -6 -1 -6
-7 -1 -17 11 -22 25 -13 32 -12 37 0 29 6 -3 10 -15 10 -25z m-1286 2 c3 -5
-5 -34 -18 -66 -23 -57 -46 -94 -27 -43 17 43 12 46 -9 7 -30 -55 -24 -8 7 55
27 54 36 64 47 47z m-2695 -74 c-9 -16 -14 -19 -17 -9 -2 7 2 17 9 22 20 13
21 11 8 -13z m154 -2 c9 -11 15 -27 12 -36 -3 -11 2 -20 16 -26 20 -9 21 -10
3 -24 -11 -8 -16 -11 -12 -6 4 5 0 15 -8 23 -8 9 -13 22 -10 29 3 8 -2 23 -11
34 -16 18 -17 18 -30 -7 -7 -14 -13 -30 -12 -37 0 -7 2 -7 6 2 2 6 11 12 19
12 16 0 19 -37 4 -60 -8 -12 -10 -12 -15 2 -8 21 -32 30 -32 12 0 -8 6 -14 14
-14 19 0 16 -18 -6 -30 -27 -14 -33 -13 -30 8 3 33 -1 36 -17 14 -13 -18 -19
-21 -30 -11 -8 7 -12 20 -9 30 4 13 1 19 -9 19 -9 0 -16 9 -16 20 0 11 7 20
15 20 8 0 15 6 15 13 0 25 23 35 74 34 36 -2 56 -8 69 -21z m2417 -12 c0 -8 7
-17 15 -20 8 -4 15 -18 15 -33 0 -26 -38 -192 -46 -200 -3 -3 -2 35 0 85 3 49
3 76 0 59 -27 -180 -33 -230 -31 -293 1 -47 -2 -75 -10 -80 -6 -4 -15 -20 -18
-35 -4 -15 -15 -32 -25 -37 -25 -13 -28 -13 -33 8 -3 9 -5 3 -6 -15 -2 -58
-17 -83 -51 -83 -17 0 -30 5 -30 12 0 7 -11 -7 -24 -32 -19 -36 -30 -46 -53
-48 l-29 -3 -14 143 c-7 79 -15 184 -17 233 -4 81 -2 94 18 118 27 35 68 34
86 -3 12 -24 13 -24 13 -3 0 27 42 42 65 23 13 -11 14 -10 9 3 -3 10 2 21 15
29 12 7 21 23 21 36 0 12 7 25 15 28 8 4 15 12 15 20 0 7 9 29 20 49 11 19 17
35 13 35 -3 0 2 9 12 20 13 15 22 17 36 9 11 -5 19 -16 19 -25z m-2616 18 c3
-5 -1 -9 -9 -9 -8 0 -12 4 -9 9 3 4 7 8 9 8 2 0 6 -4 9 -8z m2856 -39 c-11
-17 -11 -17 -6 0 3 10 6 24 7 30 0 9 2 9 5 0 3 -7 0 -20 -6 -30z m-2848 8 c8
11 9 11 6 1 -4 -16 -22 -18 -24 -2 -2 7 -1 6 3 -1 4 -8 8 -7 15 2z m4033 -31
c6 -20 5 -23 -6 -13 -7 7 -14 23 -16 35 -5 29 12 12 22 -22z m-2606 -40 c19
-25 61 -70 94 -101 59 -55 60 -57 38 -69 -33 -17 -51 -6 -51 33 0 22 -7 40
-22 53 l-22 19 17 -25 c20 -29 22 -70 5 -71 -7 0 -3 -5 10 -11 12 -6 22 -15
22 -20 0 -5 14 -2 30 7 22 11 35 13 49 6 14 -8 22 -7 31 4 13 15 49 19 85 9
19 -5 21 -13 21 -117 0 -95 3 -120 23 -167 13 -32 26 -88 30 -132 6 -76 6 -78
-16 -78 -14 0 -25 9 -31 28 -7 17 -11 21 -11 10 -1 -13 -9 -18 -29 -18 -34 0
-52 16 -53 49 -2 22 -2 23 -6 5 -4 -20 -7 -21 -40 -11 -24 8 -38 20 -44 37 -7
18 -17 26 -36 28 -15 1 -30 5 -33 10 -4 4 -25 61 -47 127 -52 154 -64 259 -33
298 12 15 18 27 14 27 -14 0 -44 -33 -45 -49 0 -9 -5 -3 -11 12 -9 24 -7 32
13 53 12 13 18 24 11 24 -6 0 -20 -12 -31 -26 -17 -22 -21 -23 -21 -8 0 10 10
28 22 41 12 13 16 23 10 23 -16 0 -15 47 1 53 14 5 13 6 56 -53z m-1441 25
c-3 -3 -9 2 -12 12 -6 14 -5 15 5 6 7 -7 10 -15 7 -18z m4106 6 c4 -5 0 -12
-6 -14 -10 -4 -9 -8 2 -16 13 -9 13 -11 -2 -11 -21 0 -32 16 -24 35 6 17 22
20 30 6z m-4067 -26 c-4 -8 -2 -17 4 -20 12 -8 2 -25 -14 -25 -7 0 -6 4 3 10
12 7 12 10 1 10 -7 0 -11 6 -8 14 3 8 1 17 -6 20 -7 2 -4 5 7 5 12 1 16 -4 13
-14z m2822 -25 c0 -10 -3 -8 -9 5 -12 27 -12 43 0 25 5 -8 9 -22 9 -30z
m-2889 -5 c0 -8 -8 -15 -17 -14 -11 0 -13 3 -5 6 6 2 10 9 6 14 -3 5 0 9 5 9
6 0 11 -7 11 -15z m4111 5 c16 -9 17 -14 8 -32 l-11 -21 -19 24 c-30 39 -20
51 22 29z m-3981 -22 c0 -7 -5 -20 -10 -28 -9 -13 -11 -13 -20 0 -7 11 -5 19
7 28 9 6 18 12 20 12 2 0 3 -6 3 -12z m2699 -57 c-12 -28 -24 -50 -26 -48 -2
2 6 27 18 56 12 28 24 50 26 48 2 -2 -6 -27 -18 -56z m68 37 c-3 -8 -6 -5 -6
6 -1 11 2 17 5 13 3 -3 4 -12 1 -19z m-2827 -114 c0 -8 -5 -12 -10 -9 -6 4 -8
11 -5 16 9 14 15 11 15 -7z m-25 -13 c3 -5 1 -12 -5 -16 -6 -4 -8 -11 -4 -16
3 -5 10 -7 15 -4 17 11 9 -12 -11 -30 -11 -10 -20 -13 -20 -7 0 7 5 12 10 12
7 0 7 6 2 18 -5 9 -7 23 -4 31 3 10 0 12 -12 8 -10 -4 -15 -3 -11 3 8 13 32
13 40 1z m135 -19 c3 -3 -6 -1 -19 3 -19 6 -23 4 -18 -9 9 -24 -12 -76 -32
-76 -22 0 -41 19 -41 40 0 9 17 28 38 42 36 24 42 24 72 0z m2465 -42 c4 -32
2 -63 -6 -87 l-13 -38 -8 60 c-7 64 -1 128 12 120 5 -3 11 -27 15 -55z m-2465
20 c0 -5 -5 -10 -11 -10 -5 0 -7 5 -4 10 3 6 8 10 11 10 2 0 4 -4 4 -10z
m2594 -24 c-3 -15 -8 -25 -11 -23 -2 3 -1 17 3 31 3 15 8 25 11 23 2 -3 1 -17
-3 -31z m-2482 10 c7 4 8 2 4 -5 -9 -13 -26 -5 -25 12 0 9 2 8 6 -1 2 -6 10
-9 15 -6z m-112 -16 c0 -5 -4 -10 -10 -10 -5 0 -10 5 -10 10 0 6 5 10 10 10 6
0 10 -4 10 -10z m-120 -10 c0 -5 -5 -10 -11 -10 -5 0 -7 5 -4 10 3 6 8 10 11
10 2 0 4 -4 4 -10z m160 0 c0 -5 -7 -10 -15 -10 -8 0 -15 5 -15 10 0 6 7 10
15 10 8 0 15 -4 15 -10z m-20 -28 l23 -19 -29 -26 c-34 -32 -40 -33 -53 -10
-8 15 -11 15 -28 3 -17 -14 -17 -14 -2 5 9 11 20 30 23 43 9 27 36 29 66 4z
m-149 -15 c-10 -9 -11 -8 -5 6 3 10 9 15 12 12 3 -3 0 -11 -7 -18z m197 -2 c0
-14 -6 -25 -13 -25 -7 0 -12 11 -12 25 0 14 5 25 12 25 7 0 13 -11 13 -25z
m2509 -7 c-3 -7 -5 -2 -5 12 0 14 2 19 5 13 2 -7 2 -19 0 -25z m-2660 -15
c-11 -12 -16 -12 -22 -2 -5 7 -4 10 3 5 6 -3 13 -2 17 4 3 5 0 10 -7 10 -9 0
-9 3 2 10 21 13 27 -8 7 -27z m2794 -39 c-6 -32 -11 -109 -11 -173 0 -63 -2
-112 -5 -109 -11 10 -7 206 6 283 7 44 14 74 16 68 2 -6 -1 -38 -6 -69z
m-2777 -31 c3 -6 -5 -19 -16 -30 -21 -18 -21 -18 -10 3 13 24 7 34 -20 34 -10
0 -18 7 -18 15 0 20 -29 19 -53 -2 -19 -17 -20 -17 -9 4 7 12 17 23 24 25 16
6 96 -33 102 -49z m116 47 c0 -5 -4 -10 -9 -10 -6 0 -13 5 -16 10 -3 6 1 10 9
10 9 0 16 -4 16 -10z m2544 -236 c9 -34 16 -84 16 -110 0 -56 19 -134 43 -181
20 -37 21 -47 6 -37 -25 15 -51 101 -64 213 -8 64 -18 128 -24 142 -10 28 -14
87 -10 164 1 38 4 28 9 -40 4 -49 15 -118 24 -151z m-2615 217 c11 -7 9 -10
-8 -16 -22 -7 -41 0 -41 16 0 11 30 12 49 0z m-129 -31 c0 -11 -2 -20 -4 -20
-2 0 -6 9 -9 20 -3 11 -1 20 4 20 5 0 9 -9 9 -20z m-35 -20 c3 -5 2 -10 -4
-10 -5 0 -13 5 -16 10 -3 6 -2 10 4 10 5 0 13 -4 16 -10z m85 5 c0 -2 -10 -10
-22 -16 -21 -11 -22 -11 -9 4 13 16 31 23 31 12z m3944 -42 c-9 -6 -23 -9 -31
-6 -23 9 -90 -18 -101 -41 l-11 -21 0 21 c-1 23 21 48 32 37 4 -3 13 0 22 7 8
7 33 13 54 14 30 0 38 4 34 16 -4 13 -4 13 6 0 8 -11 7 -18 -5 -27z m-3956 -8
c50 -26 60 -90 23 -152 -9 -15 -10 -12 -4 12 4 17 7 38 7 47 0 9 4 14 8 12 15
-9 8 13 -7 26 -9 7 -14 19 -11 26 5 13 -40 29 -76 27 -10 0 -15 4 -12 8 8 13
37 11 72 -6z m-13 -43 c-3 -3 -11 0 -18 7 -9 10 -8 11 6 5 10 -3 15 -9 12 -12z
m13 -32 c-7 -11 -15 -15 -17 -9 -2 6 3 15 10 20 20 12 21 11 7 -11z m-30 -51
c3 -12 2 -12 -6 0 -6 8 -15 10 -22 6 -9 -5 -11 -4 -6 4 10 15 28 10 34 -10z
m25 -14 c-3 -9 0 -21 5 -28 8 -9 6 -16 -8 -25 -12 -7 -21 -8 -25 -2 -12 19
-25 10 -25 -16 0 -14 -4 -23 -9 -20 -13 8 -1 47 16 53 8 3 19 0 24 -8 6 -9 9
-10 9 -2 0 6 -10 19 -22 29 -17 12 -18 15 -5 10 14 -4 20 0 24 14 3 11 9 17
14 15 4 -3 6 -12 2 -20z m2034 -32 c-3 -10 -5 -4 -5 12 0 17 2 24 5 18 2 -7 2
-21 0 -30z m-2106 0 c-12 -20 -14 -14 -5 12 4 9 9 14 11 11 3 -2 0 -13 -6 -23z
m-1 -33 c0 -5 -2 -10 -4 -10 -3 0 -8 5 -11 10 -3 6 -1 10 4 10 6 0 11 -4 11
-10z m2107 -32 c-3 -7 -5 -2 -5 12 0 14 2 19 5 13 2 -7 2 -19 0 -25z m790 0
c-3 -7 -5 -2 -5 12 0 14 2 19 5 13 2 -7 2 -19 0 -25z m-2886 -25 c13 -16 12
-17 -3 -4 -10 7 -18 15 -18 17 0 8 8 3 21 -13z m2896 -55 c-3 -7 -5 -2 -5 12
0 14 2 19 5 13 2 -7 2 -19 0 -25z m-2772 2 c23 0 40 -24 29 -41 -3 -6 -11 -5
-20 2 -11 9 -21 5 -49 -20 -20 -17 -45 -31 -55 -31 -20 0 -20 0 0 20 11 11 20
25 20 31 0 15 44 57 48 47 2 -5 14 -8 27 -8z m2785 -36 c0 -8 -5 -12 -10 -9
-6 4 -8 11 -5 16 9 14 15 11 15 -7z m-2913 -16 c-3 -8 -6 -5 -6 6 -1 11 2 17
5 13 3 -3 4 -12 1 -19z m2103 -3 c0 -14 -4 -25 -10 -25 -5 0 -10 11 -10 25 0
14 5 25 10 25 6 0 10 -11 10 -25z m1888 4 c-2 -6 -8 -10 -13 -10 -5 0 -11 4
-13 10 -2 6 4 11 13 11 9 0 15 -5 13 -11z m-1938 -93 c-9 -88 -14 -105 -27
-93 -6 7 15 163 24 180 11 19 12 -4 3 -87z m848 -43 l3 -133 -41 0 -40 0 0 78
0 78 27 -1 c34 0 42 26 15 52 -11 10 -23 28 -27 41 -6 22 -4 23 27 20 l33 -3
3 -132z m-2806 71 c-19 -26 -28 -29 -38 -12 -4 6 -3 8 3 5 11 -7 35 15 32 29
-3 20 2 28 10 15 6 -10 4 -22 -7 -37z m3732 -4 c-6 -6 -10 -3 -10 10 0 13 4
16 10 10 7 -7 7 -13 0 -20z m43 -46 c-9 -9 -28 6 -21 18 4 6 10 6 17 -1 6 -6
8 -13 4 -17z m-3807 -4 c0 -5 -2 -10 -4 -10 -3 0 -8 5 -11 10 -3 6 -1 10 4 10
6 0 11 -4 11 -10z m0 -52 c0 -5 -6 -8 -14 -8 -9 0 -12 7 -9 21 4 16 8 17 14 7
5 -7 9 -16 9 -20z m3941 -1 c-10 -9 -11 -8 -5 6 3 10 9 15 12 12 3 -3 0 -11
-7 -18z m-91 -8 c0 -5 -7 -9 -15 -9 -15 0 -20 12 -9 23 8 8 24 -1 24 -14z
m-3741 -28 c11 -19 4 -34 -10 -25 -4 2 -6 11 -2 19 3 8 0 15 -6 15 -6 0 -11
-5 -11 -12 0 -6 -3 -9 -6 -5 -8 7 4 27 16 27 5 0 14 -8 19 -19z m3766 -13 c-2
-28 -20 -26 -18 2 1 30 2 32 11 26 5 -3 8 -15 7 -28z m-3945 -41 c7 -21 10
-41 7 -43 -3 -3 -8 8 -12 25 -3 16 -13 35 -21 41 -7 7 -11 17 -8 22 9 14 20
-1 34 -45z m2040 -2 c0 -14 -4 -25 -10 -25 -5 0 -10 11 -10 25 0 14 5 25 10
25 6 0 10 -11 10 -25z m1884 -6 c-3 -5 -10 -7 -15 -3 -5 3 -7 10 -3 15 3 5 10
7 15 3 5 -3 7 -10 3 -15z m-3884 -19 c0 -11 -4 -20 -9 -20 -5 0 -7 9 -4 20 3
11 7 20 9 20 2 0 4 -9 4 -20z m1981 -130 c-9 -44 -9 -44 -10 26 -1 39 2 74 7
78 11 12 13 -54 3 -104z m1103 -29 c3 -5 23 -6 45 -4 22 3 42 0 46 -6 3 -6 14
-11 24 -11 10 0 34 -15 55 -32 32 -29 38 -40 43 -86 4 -48 3 -54 -16 -59 -12
-3 -21 -9 -21 -14 0 -23 -28 -5 -43 26 -9 19 -23 35 -31 35 -9 0 -25 11 -38
25 -13 13 -41 31 -63 39 -22 7 -39 19 -37 25 2 9 -3 9 -18 1 -14 -8 -20 -8
-20 0 0 6 -4 8 -10 5 -11 -7 -13 24 -4 49 7 17 78 23 88 7z m-3144 -41 c0 -5
-8 -10 -17 -10 -15 0 -16 2 -3 10 19 12 20 12 20 0z m912 -78 c23 -42 40 -77
38 -77 -2 0 2 -10 9 -22 8 -15 9 -29 2 -41 -5 -9 -14 -90 -20 -178 -6 -88 -14
-169 -17 -180 -7 -19 -7 -19 14 0 12 11 22 27 22 36 0 9 4 20 9 26 5 5 28 62
51 127 30 83 39 122 32 129 -15 15 33 84 69 100 16 7 32 21 35 30 3 9 26 29
52 44 26 15 56 33 67 40 19 12 27 9 79 -32 44 -35 57 -50 52 -65 -3 -10 -8
-27 -11 -36 -4 -12 1 -21 17 -28 30 -14 57 -123 57 -232 0 -46 4 -90 9 -99 21
-38 26 18 22 227 -2 101 -1 107 28 158 24 43 42 60 92 87 l62 35 84 -15 c48
-8 109 -27 145 -45 34 -17 66 -31 70 -31 14 0 82 -50 97 -71 7 -11 22 -43 33
-72 12 -33 18 -44 19 -28 0 26 68 161 80 161 20 0 106 -43 126 -63 12 -12 29
-47 39 -78 16 -52 17 -62 2 -145 -15 -86 -16 -271 -1 -295 17 -29 50 65 115
331 17 69 40 151 51 183 20 56 24 60 88 92 l67 34 36 -44 c21 -24 37 -53 37
-64 0 -29 13 -26 32 7 15 26 23 28 125 41 266 33 333 10 353 -124 l6 -40 21
41 c40 75 130 119 162 80 10 -12 19 -12 59 1 31 9 66 12 103 8 51 -6 61 -11
106 -58 71 -74 88 -103 108 -182 19 -77 16 -186 -9 -268 -12 -40 -27 -65 -106
-172 -36 -49 -147 -142 -205 -173 -100 -53 -241 -30 -292 46 -31 47 -54 132
-52 194 1 33 -6 66 -16 86 -21 42 -14 86 26 157 27 48 69 156 69 178 0 6 -8 3
-17 -6 -10 -8 -29 -17 -43 -19 -24 -3 -26 -9 -42 -108 -9 -58 -21 -130 -26
-160 -18 -92 -21 -113 -26 -177 l-6 -61 33 -12 32 -11 -25 -14 c-14 -7 -34
-30 -45 -51 -11 -21 -39 -51 -63 -67 l-42 -29 -45 26 c-25 15 -49 34 -54 44
-15 30 -23 207 -12 289 16 115 20 255 9 277 -8 15 -17 17 -50 12 -31 -5 -45
-3 -59 10 -11 10 -21 15 -22 13 -16 -19 -86 -366 -87 -429 0 -20 5 -41 11 -47
16 -16 -5 -70 -45 -115 -28 -32 -109 -78 -136 -78 -5 0 -23 20 -41 45 l-32 44
-28 -16 c-37 -22 -36 -34 1 -61 57 -43 31 -142 -37 -142 -16 0 -73 21 -128 46
-55 25 -118 51 -140 56 -22 6 -47 17 -56 24 -8 8 -44 25 -78 39 -69 28 -116
57 -204 123 -39 30 -59 39 -62 30 -2 -7 -9 -32 -15 -54 -16 -65 -44 -94 -90
-94 -33 0 -44 6 -80 48 l-41 47 6 75 c10 126 10 133 -1 137 -8 3 -14 -26 -19
-86 l-7 -91 -76 -96 -75 -96 -28 62 c-41 90 -47 117 -41 203 4 72 3 77 -15 77
-42 0 -90 -28 -97 -57 -8 -32 -32 -118 -51 -178 -11 -34 -20 -43 -56 -57 -65
-25 -85 -22 -130 19 -33 30 -39 41 -34 62 l6 26 -18 -21 c-10 -11 -49 -31 -87
-43 l-68 -23 -40 39 c-22 21 -60 78 -85 126 -30 57 -49 85 -55 79 -18 -18 -38
-135 -25 -150 9 -11 4 -20 -21 -41 -22 -18 -31 -32 -27 -43 5 -12 -9 -21 -69
-41 l-75 -25 -17 41 c-28 70 -34 109 -22 152 5 22 12 56 14 75 1 19 8 55 14
80 23 91 60 341 64 431 2 48 9 63 46 112 23 31 45 57 48 57 3 0 13 -7 21 -15
14 -12 20 -12 41 0 14 8 31 17 38 21 7 3 33 -1 58 -11 32 -12 49 -26 63 -52
18 -35 18 -37 -6 -106 l-23 -70 31 -81 c17 -45 34 -85 38 -91 11 -17 18 97 10
159 -6 45 -5 62 5 70 8 6 19 33 25 60 14 56 35 102 61 131 10 11 28 44 40 72
12 29 26 50 31 48 4 -3 27 -40 51 -83z m3128 84 c0 -2 -7 -6 -15 -10 -8 -3
-15 -1 -15 4 0 6 7 10 15 10 8 0 15 -2 15 -4z m-4020 -56 c0 -5 -6 -12 -12
-16 -7 -4 -10 -4 -6 1 4 4 3 14 -4 22 -8 11 -7 12 6 7 9 -3 16 -10 16 -14z
m60 -26 c0 -7 -5 -16 -12 -20 -6 -4 -8 -3 -5 3 3 5 0 10 -8 10 -10 0 -11 -5
-4 -18 14 -28 11 -36 -6 -12 -20 29 -3 82 20 63 8 -7 15 -18 15 -26z m3950 21
c14 -8 19 -14 11 -15 -11 0 -11 -3 -1 -15 9 -11 10 -19 3 -26 -6 -6 -10 -4
-11 6 -1 8 -3 21 -4 29 -1 9 -12 14 -30 14 -16 -1 -34 4 -40 10 -18 18 41 15
72 -3z m-4023 -57 c-3 -7 -5 -2 -5 12 0 14 2 19 5 13 2 -7 2 -19 0 -25z m23
-28 c0 -5 -2 -10 -4 -10 -3 0 -8 5 -11 10 -3 6 -1 10 4 10 6 0 11 -4 11 -10z
m0 -35 c0 -17 -25 -20 -35 -5 -4 6 1 7 11 3 12 -4 15 -3 10 5 -4 7 -2 12 3 12
6 0 11 -7 11 -15z m130 -17 c0 -7 -5 -20 -10 -28 -9 -13 -11 -13 -19 0 -6 9
-6 19 1 27 13 17 28 17 28 1z m-60 -134 c0 -8 -5 -12 -10 -9 -6 4 -8 11 -5 16
9 14 15 11 15 -7z m3965 -16 c-1 -12 -8 -24 -15 -26 -9 -3 -11 1 -7 12 4 10 7
24 7 32 0 9 4 13 8 10 5 -3 8 -15 7 -28z m-3992 5 c4 -3 2 -12 -4 -20 -9 -10
-8 -13 5 -13 21 0 20 -13 -3 -34 -19 -17 -19 -16 -15 24 3 35 1 41 -12 36 -8
-3 -12 -2 -9 4 7 11 28 13 38 3z m125 -9 c15 -15 14 -16 -7 -9 -16 5 -21 4
-17 -4 12 -19 -14 -81 -33 -81 -40 0 -56 51 -21 70 11 6 17 16 14 22 -5 7 -2
9 9 5 9 -3 19 -2 22 3 8 14 14 13 33 -6z m12 -34 c0 -5 -5 -10 -11 -10 -5 0
-7 5 -4 10 3 6 8 10 11 10 2 0 4 -4 4 -10z m3745 -11 c3 -4 12 -6 19 -3 20 8
42 -24 27 -39 -9 -9 -16 -9 -31 1 -16 9 -20 9 -20 0 0 -16 -13 0 -27 33 -10
24 -10 26 8 22 11 -3 22 -9 24 -14z m75 11 c0 -5 6 -10 13 -10 7 0 13 -9 13
-19 0 -15 -3 -17 -13 -9 -10 8 -13 6 -13 -6 0 -14 11 -21 33 -17 4 0 7 -6 7
-14 0 -14 -3 -13 -25 1 -14 9 -25 25 -25 35 0 10 -5 21 -10 24 -12 7 -4 25 11
25 5 0 9 -4 9 -10z m-3820 -30 c0 -5 -4 -10 -10 -10 -5 0 -10 5 -10 10 0 6 5
10 10 10 6 0 10 -4 10 -10z m-120 -10 c0 -5 -5 -10 -11 -10 -5 0 -7 5 -4 10 3
6 8 10 11 10 2 0 4 -4 4 -10z m160 0 c0 -5 -7 -10 -15 -10 -8 0 -15 5 -15 10
0 6 7 10 15 10 8 0 15 -4 15 -10z m-20 -28 l23 -19 -29 -26 c-34 -32 -40 -33
-53 -10 -8 15 -11 15 -28 3 -17 -14 -17 -14 -2 5 9 11 20 30 23 43 9 27 36 29
66 4z m-149 -15 c-10 -9 -11 -8 -5 6 3 10 9 15 12 12 3 -3 0 -11 -7 -18z m197
-2 c0 -14 -6 -25 -13 -25 -7 0 -12 11 -12 25 0 14 5 25 12 25 7 0 13 -11 13
-25z m-151 -22 c-11 -12 -16 -12 -22 -2 -5 7 -4 10 3 5 6 -3 13 -2 17 4 3 5 0
10 -7 10 -9 0 -9 3 2 10 21 13 27 -8 7 -27z m3870 21 c10 -27 -14 -40 -37 -19
-11 10 -17 22 -14 26 9 15 44 10 51 -7z m-3853 -91 c3 -6 -5 -19 -16 -30 -21
-18 -21 -18 -10 3 13 24 7 34 -20 34 -10 0 -18 7 -18 15 0 20 -29 19 -53 -2
-19 -17 -20 -17 -9 4 7 12 17 23 24 25 16 6 96 -33 102 -49z m116 47 c0 -5 -4
-10 -9 -10 -6 0 -13 5 -16 10 -3 6 1 10 9 10 9 0 16 -4 16 -10z m3730 -11 c0
-6 10 -8 23 -5 l22 6 -22 -11 c-13 -7 -23 -16 -23 -21 0 -5 6 -6 13 -2 9 5 9
3 -1 -7 -11 -12 -14 -12 -21 0 -7 11 -9 11 -14 0 -3 -8 -6 -2 -6 12 -1 14 2
29 6 32 10 11 23 8 23 -4z m-3801 -8 c11 -7 9 -10 -8 -16 -22 -7 -41 0 -41 16
0 11 30 12 49 0z m3864 -33 c-8 -15 -33 -8 -33 10 0 14 2 15 10 2 8 -12 10
-10 11 10 0 23 1 23 8 5 5 -11 7 -23 4 -27z m-3993 2 c0 -11 -2 -20 -4 -20 -2
0 -6 9 -9 20 -3 11 -1 20 4 20 5 0 9 -9 9 -20z m202 -25 c-3 -38 -18 -59 -33
-49 -4 2 -9 -3 -13 -11 -3 -9 0 -15 9 -15 17 0 20 -16 5 -25 -5 -3 -7 -12 -3
-21 3 -8 -2 -22 -10 -32 -9 -9 -16 -20 -17 -24 -8 -38 -17 -49 -48 -61 -21 -8
-38 -14 -40 -12 -2 2 8 25 22 53 14 27 28 72 32 99 5 44 4 52 -15 65 -19 14
-20 17 -6 28 13 11 20 11 39 0 30 -15 46 -6 46 26 0 19 5 25 18 22 13 -3 16
-12 14 -43z m-237 5 c3 -5 2 -10 -4 -10 -5 0 -13 5 -16 10 -3 6 -2 10 4 10 5
0 13 -4 16 -10z m85 5 c0 -2 -10 -10 -22 -16 -21 -11 -22 -11 -9 4 13 16 31
23 31 12z m3954 -21 c3 -8 2 -12 -4 -9 -6 3 -10 10 -10 16 0 14 7 11 14 -7z
m-83 -3 c-11 -7 -7 -10 15 -13 l29 -3 -31 -6 c-30 -5 -34 -1 -25 29 1 1 7 2
14 2 8 0 8 -3 -2 -9z m-3883 -26 c50 -26 60 -90 23 -152 -9 -15 -10 -12 -4 12
4 17 7 38 7 47 0 9 4 14 8 12 15 -9 8 13 -7 26 -9 7 -14 19 -11 26 5 13 -40
29 -76 27 -10 0 -15 4 -12 8 8 13 37 11 72 -6z m3955 -37 c22 -26 24 -56 2
-38 -8 6 -14 15 -13 18 2 21 -4 32 -19 32 -15 0 -15 -1 1 -13 17 -13 18 -14 2
-20 -10 -4 -15 -11 -12 -16 3 -5 1 -23 -5 -40 -13 -37 3 -94 32 -115 19 -13
19 -13 -5 -13 -20 0 -30 9 -45 41 -22 47 -19 86 11 129 17 24 17 27 3 27 -9 0
-13 5 -10 10 11 18 -17 11 -31 -7 -7 -10 -14 -13 -14 -6 0 6 7 19 16 28 21 20
62 13 87 -17z m-3968 -6 c-3 -3 -11 0 -18 7 -9 10 -8 11 6 5 10 -3 15 -9 12
-12z m13 -32 c-7 -11 -15 -15 -17 -9 -2 6 3 15 10 20 20 12 21 11 7 -11z
m3872 -5 c-6 -8 -9 -18 -6 -23 3 -6 -1 -15 -8 -21 -12 -10 -14 -9 -11 6 2 10
4 26 4 36 1 9 8 17 17 17 13 0 14 -3 4 -15z m-3902 -46 c3 -12 2 -12 -6 0 -6
8 -15 10 -22 6 -9 -5 -11 -4 -6 4 10 15 28 10 34 -10z m25 -14 c-3 -9 0 -21 6
-29 22 -26 -13 -24 -38 2 -17 18 -18 23 -6 18 12 -4 18 0 22 14 3 11 9 17 14
15 4 -3 6 -12 2 -20z m2736 -27 c4 -12 9 -45 10 -75 2 -46 -1 -53 -16 -53 -11
0 -25 6 -32 13 -11 10 -12 9 -6 -2 6 -10 4 -12 -4 -6 -9 5 -11 21 -6 53 13 87
36 117 54 70z m-2759 -18 c0 -5 -7 -7 -15 -4 -8 4 -15 1 -15 -7 0 -7 -3 -10
-6 -6 -9 9 5 27 22 27 8 0 14 -4 14 -10z m145 -20 c-3 -5 -16 -10 -28 -9 -21
0 -21 1 -2 9 28 12 37 12 30 0z m3720 -21 c0 -19 -5 -23 -23 -22 -13 2 -21 -1
-17 -7 3 -6 -1 -10 -9 -10 -21 0 -20 7 7 40 26 34 42 33 42 -1z m-2682 -221
c13 -29 23 -54 21 -56 -5 -7 -50 21 -66 42 -24 29 -23 66 1 66 14 0 27 -16 44
-52z m598 23 l24 -19 -45 -12 c-25 -6 -53 -13 -62 -16 -21 -6 -22 -1 -7 29 23
42 53 48 90 18z m-277 -50 c33 -35 31 -36 -84 -47 -83 -8 -82 -10 -26 54 28
32 75 29 110 -7z"/>
<path d="M2732 4142 c-27 -13 -38 -14 -65 -4 -51 18 -115 15 -153 -9 -22 -13
-43 -41 -63 -82 -51 -105 -52 -102 67 -105 l103 -3 30 31 c25 24 30 36 25 58
-19 78 -136 82 -136 5 0 -43 61 -58 84 -21 16 27 -10 50 -29 25 -9 -13 -15
-15 -20 -7 -11 17 9 32 36 28 19 -2 25 -10 27 -34 3 -26 -1 -33 -27 -44 -35
-14 -95 1 -105 26 -33 85 54 142 148 98 38 -19 72 -14 107 15 34 28 14 44 -29
23z m-252 -163 c0 -5 -4 -9 -10 -9 -5 0 -10 7 -10 16 0 8 5 12 10 9 6 -3 10
-10 10 -16z"/>
<path d="M2172 4053 c4 -21 33 -25 33 -3 0 8 -8 16 -18 18 -14 3 -18 -1 -15
-15z"/>
<path d="M2137 3974 c-14 -15 -6 -34 14 -34 14 0 19 5 17 17 -3 18 -20 27 -31
17z"/>
<path d="M2952 4073 c2 -10 10 -18 18 -18 8 0 16 8 18 18 2 12 -3 17 -18 17
-15 0 -20 -5 -18 -17z"/>
<path d="M3000 3985 c-14 -16 -5 -35 16 -35 15 0 20 35 5 44 -5 3 -14 -1 -21
-9z"/>
<path d="M2846 3710 c-16 -5 -40 -19 -53 -32 -18 -17 -26 -19 -32 -10 -6 9
-12 8 -25 -7 -11 -12 -14 -21 -7 -26 6 -3 8 -18 5 -33 l-6 -27 29 32 c62 70
131 89 200 56 45 -21 93 -86 93 -127 l0 -30 22 21 c19 19 20 26 10 49 -25 53
-68 98 -117 120 -53 25 -73 27 -119 14z"/>
<path d="M2205 3681 c-46 -20 -101 -71 -110 -102 -4 -13 1 -32 17 -55 24 -36
46 -47 28 -15 -18 35 -11 66 23 98 44 42 69 53 117 53 47 0 92 -20 114 -52 11
-15 16 -18 16 -7 0 41 -81 99 -137 99 -15 0 -46 -9 -68 -19z"/>
<path d="M2853 3635 c-58 -25 -71 -92 -27 -144 l26 -31 -34 -1 c-18 -1 7 -7
55 -14 48 -7 94 -15 101 -18 8 -3 22 3 31 13 15 17 14 17 -32 13 -48 -4 -48
-4 -27 14 33 29 46 62 40 97 -12 62 -75 96 -133 71z m57 -40 c0 -8 -7 -15 -15
-15 -16 0 -20 12 -8 23 11 12 23 8 23 -8z"/>
<path d="M2243 3622 c-48 -38 -51 -101 -6 -144 l25 -23 -24 -6 c-13 -3 -31 -2
-40 3 -21 10 -24 -4 -5 -19 8 -7 45 -5 112 6 55 8 90 17 78 19 l-22 3 20 39
c25 47 18 81 -23 115 -35 29 -83 32 -115 7z m87 -27 c0 -8 -4 -15 -9 -15 -13
0 -22 16 -14 24 11 11 23 6 23 -9z"/>
<path d="M3045 3370 c58 -8 98 -27 145 -67 30 -24 32 -25 21 -5 -6 12 -35 35
-64 52 -40 23 -63 30 -102 29 l-50 -1 50 -8z"/>
<path d="M2145 3326 c-49 -16 -129 -56 -122 -62 2 -2 30 7 61 22 32 14 75 28
97 31 21 3 39 10 39 14 0 12 -27 10 -75 -5z"/>
<path d="M3050 3284 c30 -14 76 -46 103 -72 26 -25 47 -41 47 -34 0 33 -109
110 -180 126 -14 3 0 -6 30 -20z"/>
<path d="M2538 3279 c-27 -15 -22 -28 19 -45 30 -13 44 -14 80 -3 52 14 63 27
38 46 -22 15 -112 17 -137 2z"/>
<path d="M3028 3208 c23 -24 61 -78 83 -119 22 -41 37 -63 33 -49 -17 65 -95
180 -137 201 -13 7 -4 -7 21 -33z"/>
<path d="M2890 3211 c0 -4 5 -12 10 -17 7 -7 -7 -11 -47 -11 -32 0 -93 -10
-136 -22 -48 -14 -142 -28 -245 -36 -92 -8 -182 -19 -200 -24 -30 -9 -32 -8
-27 10 11 33 -12 21 -24 -13 -15 -43 -5 -89 29 -129 l28 -34 223 -8 c399 -16
383 -16 417 16 35 34 52 85 52 158 0 66 -17 100 -52 110 -16 4 -28 4 -28 0z
m30 -54 c31 -15 50 -74 29 -88 -19 -12 -57 -11 -61 2 -2 6 -11 7 -22 3 -16 -6
-12 -11 25 -28 24 -12 45 -29 47 -38 2 -9 -10 -31 -25 -48 l-29 -32 -290 9
c-297 9 -339 16 -332 51 2 9 17 21 33 26 17 4 39 13 50 18 19 8 19 8 -1 4 -12
-2 -28 0 -35 4 -7 5 -18 2 -27 -6 -21 -22 -47 -13 -47 16 0 34 53 48 255 65
99 8 191 22 230 34 75 22 164 26 200 8z"/>
<path d="M706 3631 c-17 -19 -17 -19 3 -14 12 3 21 12 21 19 0 18 -4 18 -24
-5z"/>
<path d="M823 3516 c-21 -22 -21 -24 -6 -46 9 -13 11 -20 5 -16 -7 4 -12 3
-12 -3 0 -22 20 -20 26 3 8 34 34 42 54 15 13 -16 17 -18 17 -5 0 9 -4 16 -9
16 -4 0 -7 3 -7 8 4 24 -3 34 -20 29 -12 -3 -21 1 -23 9 -2 9 -9 7 -25 -10z"/>
<path d="M948 3483 c-10 -3 -18 -9 -18 -14 0 -6 5 -7 10 -4 6 4 17 1 25 -5 12
-10 15 -9 15 3 0 19 -9 25 -32 20z"/>
<path d="M924 3415 c4 -25 24 -41 37 -28 8 8 6 11 -7 10 -13 -1 -18 4 -16 16
2 9 -1 17 -7 17 -5 0 -8 -7 -7 -15z"/>
<path d="M1049 3402 c-15 -13 -19 -21 -10 -26 6 -4 10 -3 9 3 -2 5 6 17 17 25
11 8 17 16 14 16 -4 0 -17 -8 -30 -18z"/>
<path d="M961 3361 c-8 -5 -9 -11 -3 -15 5 -3 12 1 16 9 6 17 6 18 -13 6z"/>
<path d="M982 3299 c6 -16 12 -28 14 -26 5 5 -13 57 -20 57 -3 0 0 -14 6 -31z"/>
<path d="M920 3186 c0 -2 6 -9 13 -15 10 -8 14 -7 14 4 0 8 -6 15 -14 15 -7 0
-13 -2 -13 -4z"/>
<path d="M1035 3129 c-4 -6 -4 -13 -1 -16 3 -4 6 0 6 7 0 9 5 7 16 -6 14 -18
15 -18 4 4 -12 25 -16 27 -25 11z"/>
<path d="M882 3113 c-7 -2 -17 -13 -22 -24 -9 -15 -8 -17 5 -13 9 4 13 9 11
12 -3 3 2 11 12 18 18 14 16 16 -6 7z"/>
<path d="M931 3061 c-7 -5 -16 -31 -19 -59 -4 -41 -1 -53 17 -71 22 -22 41
-27 41 -11 0 6 -6 9 -12 8 -7 -2 -12 3 -10 10 1 8 -2 11 -7 8 -5 -4 -9 7 -9
24 1 16 5 30 10 30 5 0 7 -4 3 -9 -3 -5 -2 -12 3 -15 4 -2 9 4 9 15 1 13 -5
19 -18 19 -10 0 -19 5 -19 10 0 6 5 10 10 10 6 0 9 6 8 13 -2 6 3 11 10 9 8
-1 11 2 7 8 -7 12 -6 12 -24 1z"/>
<path d="M1150 2955 c-14 -8 -20 -14 -14 -15 5 0 19 7 30 15 24 18 16 19 -16
0z"/>
<path d="M1005 2905 c0 -13 3 -21 8 -18 4 2 7 10 7 18 0 8 -3 16 -7 18 -5 3
-8 -5 -8 -18z"/>
<path d="M1055 2919 c-4 -6 -5 -12 -2 -15 2 -3 7 2 10 11 7 17 1 20 -8 4z"/>
<path d="M1234 2878 l-19 -23 23 19 c21 18 27 26 19 26 -2 0 -12 -10 -23 -22z"/>
<path d="M944 2851 c0 -11 4 -17 8 -15 4 3 8 12 8 20 0 8 -4 14 -8 14 -4 0 -8
-9 -8 -19z"/>
<path d="M1146 2851 c-4 -5 3 -7 14 -4 23 6 26 13 6 13 -8 0 -17 -4 -20 -9z"/>
<path d="M1184 2828 l-19 -23 23 19 c21 18 27 26 19 26 -2 0 -12 -10 -23 -22z"/>
<path d="M1263 2835 c0 -8 4 -12 9 -9 5 3 6 10 3 15 -9 13 -12 11 -12 -6z"/>
<path d="M836 2813 c-6 -14 -5 -15 5 -6 7 7 10 15 7 18 -3 3 -9 -2 -12 -12z"/>
<path d="M967 2765 c3 -16 13 -39 21 -50 8 -11 12 -13 9 -5 -2 8 0 24 6 35 8
16 7 18 -4 8 -11 -11 -15 -8 -26 15 l-12 27 6 -30z"/>
<path d="M1156 2748 c3 -5 10 -6 15 -3 13 9 11 12 -6 12 -8 0 -12 -4 -9 -9z"/>
<path d="M949 2706 c7 -8 10 -20 7 -25 -4 -6 3 -15 14 -21 11 -6 17 -16 14
-22 -4 -6 -3 -8 3 -5 13 8 -16 74 -36 82 -11 4 -11 3 -2 -9z"/>
<path d="M1050 2709 c0 -5 5 -7 10 -4 6 3 10 8 10 11 0 2 -4 4 -10 4 -5 0 -10
-5 -10 -11z"/>
<path d="M1200 2713 c0 -15 18 -35 23 -27 3 5 -1 15 -9 22 -8 7 -14 9 -14 5z"/>
<path d="M1091 2694 c0 -11 3 -14 6 -6 3 7 2 16 -1 19 -3 4 -6 -2 -5 -13z"/>
<path d="M1099 2663 c-13 -16 -12 -17 4 -4 9 7 17 15 17 17 0 8 -8 3 -21 -13z"/>
<path d="M1140 2652 c0 -11 7 -18 20 -18 18 0 18 2 3 18 -9 10 -18 18 -20 18
-1 0 -3 -8 -3 -18z"/>
<path d="M1010 2656 c0 -2 8 -10 18 -17 15 -13 16 -12 3 4 -13 16 -21 21 -21
13z"/>
<path d="M1057 2612 c10 -6 10 -12 -2 -28 -8 -10 -15 -26 -15 -34 0 -8 8 1 19
20 19 36 19 50 -2 50 -9 0 -9 -2 0 -8z"/>
<path d="M1126 2588 c3 -5 20 -8 38 -8 17 0 38 -6 46 -12 12 -11 12 -10 2 3
-12 16 -95 32 -86 17z"/>
<path d="M1285 2580 c10 -11 20 -20 23 -20 3 0 -3 9 -13 20 -10 11 -20 20 -23
20 -3 0 3 -9 13 -20z"/>
<path d="M956 2571 c-4 -5 3 -7 14 -4 23 6 26 13 6 13 -8 0 -17 -4 -20 -9z"/>
<path d="M1089 2563 c-13 -16 -12 -17 4 -4 9 7 17 15 17 17 0 8 -8 3 -21 -13z"/>
<path d="M1121 2558 c-1 -9 4 -20 9 -23 18 -11 -1 -26 -23 -20 -18 5 -19 4 -6
-4 12 -8 25 -7 45 4 20 10 24 15 11 15 -10 0 -22 10 -27 23 -6 16 -9 17 -9 5z"/>
<path d="M1360 2539 c0 -5 5 -7 10 -4 6 3 10 8 10 11 0 2 -4 4 -10 4 -5 0 -10
-5 -10 -11z"/>
<path d="M1000 2536 c0 -2 7 -7 16 -10 8 -3 12 -2 9 4 -6 10 -25 14 -25 6z"/>
<path d="M1193 2530 c10 -6 22 -23 27 -36 5 -13 15 -24 21 -24 15 0 -33 63
-52 68 -8 2 -6 -2 4 -8z"/>
<path d="M1415 2511 c-8 -16 -20 -31 -27 -34 -9 -4 -8 -6 3 -6 8 -1 23 15 32
34 20 42 14 47 -8 6z"/>
<path d="M1330 2516 c0 -8 4 -17 9 -20 5 -4 7 3 4 14 -6 23 -13 26 -13 6z"/>
<path d="M1011 2464 c0 -11 3 -14 6 -6 3 7 2 16 -1 19 -3 4 -6 -2 -5 -13z"/>
<path d="M1287 2463 c3 -7 6 -13 8 -13 2 0 5 6 8 13 3 8 -1 14 -8 14 -7 0 -11
-6 -8 -14z"/>
<path d="M1153 2455 c0 -8 6 -16 14 -19 11 -4 11 -1 3 14 -13 24 -17 25 -17 5z"/>
<path d="M1333 2460 c-13 -5 -23 -11 -23 -14 0 -7 40 6 46 15 6 10 6 10 -23
-1z"/>
<path d="M1451 2438 c5 -10 12 -18 14 -18 3 0 5 8 5 18 0 10 -7 19 -14 19 -11
0 -13 -5 -5 -19z"/>
<path d="M1384 2401 c20 -22 26 -25 26 -13 0 4 -10 13 -22 21 -23 14 -23 14
-4 -8z"/>
<path d="M887 2375 c-9 -19 -23 -35 -32 -35 -18 0 -19 11 -2 29 10 11 10 13 0
7 -8 -4 -13 -1 -13 7 0 18 -27 18 -34 0 -3 -7 1 -13 9 -13 18 0 20 -16 4 -26
-8 -4 -7 -9 2 -15 11 -6 9 -13 -8 -31 -12 -13 -22 -25 -23 -28 -6 -34 -17 -50
-40 -60 -35 -14 -74 -55 -66 -68 9 -15 46 -2 46 16 0 12 -4 12 -22 -4 l-23
-19 19 23 c11 12 26 20 33 18 7 -3 12 0 10 6 -3 13 52 30 76 22 25 -8 21 5 -5
16 l-23 9 22 0 c12 1 34 -4 49 -9 35 -14 44 -4 10 11 -33 16 -33 26 2 32 15 3
6 4 -20 4 -27 -1 -48 1 -48 4 0 3 21 26 48 51 26 24 48 54 49 66 2 30 -1 28
-20 -13z"/>
<path d="M1069 2373 c-13 -16 -12 -17 4 -4 9 7 17 15 17 17 0 8 -8 3 -21 -13z"/>
<path d="M950 2370 c-13 -8 -13 -10 2 -10 9 0 20 5 23 10 8 13 -5 13 -25 0z"/>
<path d="M1411 2358 c-1 -9 -11 -24 -23 -32 -12 -9 -18 -16 -12 -16 17 0 47
38 41 52 -4 9 -6 7 -6 -4z"/>
<path d="M950 2335 c-7 -9 -8 -15 -2 -15 5 0 12 7 16 15 3 8 4 15 2 15 -2 0
-9 -7 -16 -15z"/>
<path d="M1226 2327 c3 -10 9 -15 12 -12 3 3 0 11 -7 18 -10 9 -11 8 -5 -6z"/>
<path d="M1250 2336 c0 -2 8 -10 18 -17 15 -13 16 -12 3 4 -13 16 -21 21 -21
13z"/>
<path d="M1151 2313 c7 -12 15 -20 18 -17 3 2 -3 12 -13 22 -17 16 -18 16 -5
-5z"/>
<path d="M1315 2270 c-3 -6 1 -7 9 -4 18 7 21 14 7 14 -6 0 -13 -4 -16 -10z"/>
<path d="M985 2230 c3 -5 8 -10 11 -10 2 0 4 5 4 10 0 6 -5 10 -11 10 -5 0 -7
-4 -4 -10z"/>
<path d="M1393 2200 c-6 -17 -8 -30 -3 -30 8 0 24 50 18 56 -2 2 -9 -10 -15
-26z"/>
<path d="M1379 2147 c6 -8 7 -18 3 -22 -4 -5 -1 -5 6 -1 10 6 10 11 1 22 -6 8
-14 14 -16 14 -3 0 0 -6 6 -13z"/>
<path d="M1181 2127 c-13 -21 -12 -21 5 -5 10 10 16 20 13 22 -3 3 -11 -5 -18
-17z"/>
<path d="M1324 2101 c0 -10 6 -18 13 -18 7 0 13 4 13 7 0 4 -6 12 -13 18 -10
8 -13 6 -13 -7z"/>
<path d="M1477 2091 c-4 -17 -3 -21 5 -13 5 5 8 16 6 23 -3 8 -7 3 -11 -10z"/>
<path d="M1430 2091 c0 -6 4 -13 10 -16 6 -3 7 1 4 9 -7 18 -14 21 -14 7z"/>
<path d="M823 2036 c-21 -22 -21 -24 -6 -46 9 -13 11 -20 5 -16 -7 4 -12 3
-12 -3 0 -22 20 -20 26 3 8 34 34 42 54 15 13 -16 17 -18 17 -5 0 9 -4 16 -9
16 -4 0 -7 3 -7 8 4 24 -3 34 -20 29 -12 -3 -21 1 -23 9 -2 9 -9 7 -25 -10z"/>
<path d="M1343 2043 c4 -3 1 -13 -6 -22 -11 -14 -10 -14 5 -2 16 12 16 31 1
31 -4 0 -3 -3 0 -7z"/>
<path d="M1146 2025 c-9 -26 -7 -32 5 -12 6 10 9 21 6 23 -2 3 -7 -2 -11 -11z"/>
<path d="M1276 2025 c-17 -13 -18 -17 -6 -28 8 -6 11 -8 7 -3 -4 5 0 18 10 28
19 22 15 23 -11 3z"/>
<path d="M1486 2023 c6 -4 14 -15 17 -23 5 -11 6 -9 4 4 -1 11 -9 21 -17 23
-10 3 -11 2 -4 -4z"/>
<path d="M948 2003 c-10 -3 -18 -9 -18 -14 0 -6 5 -7 10 -4 6 4 17 1 25 -5 12
-10 15 -9 15 3 0 19 -9 25 -32 20z"/>
<path d="M1394 2002 c3 -6 -1 -15 -10 -20 -15 -8 -14 -10 2 -16 10 -4 15 -4
11 0 -4 4 -2 13 4 20 7 8 6 14 -2 20 -7 4 -9 3 -5 -4z"/>
<path d="M1228 1983 c6 -2 18 -2 25 0 6 3 1 5 -13 5 -14 0 -19 -2 -12 -5z"/>
<path d="M1166 1972 c-2 -4 4 -8 14 -8 10 0 16 4 14 8 -3 4 -9 8 -14 8 -5 0
-11 -4 -14 -8z"/>
<path d="M1330 1966 c0 -2 7 -9 15 -16 9 -7 15 -8 15 -2 0 5 -7 12 -15 16 -8
3 -15 4 -15 2z"/>
<path d="M924 1935 c4 -25 24 -41 37 -28 8 8 6 11 -7 10 -13 -1 -18 4 -16 16
2 9 -1 17 -7 17 -5 0 -8 -7 -7 -15z"/>
<path d="M1049 1922 c-15 -13 -19 -21 -10 -26 6 -4 10 -3 9 3 -2 5 6 17 17 25
11 8 17 16 14 16 -4 0 -17 -8 -30 -18z"/>
<path d="M961 1881 c-8 -5 -9 -11 -3 -15 5 -3 12 1 16 9 6 17 6 18 -13 6z"/>
<path d="M890 1840 c0 -5 9 -10 21 -10 11 0 17 5 14 10 -3 6 -13 10 -21 10 -8
0 -14 -4 -14 -10z"/>
<path d="M610 1650 c-50 -50 7 -118 63 -76 21 16 22 45 1 74 -19 27 -38 28
-64 2z m64 -48 c-6 -9 -22 -17 -35 -17 -31 0 -39 40 -12 60 16 12 21 11 38 -6
15 -15 17 -23 9 -37z"/>
<path d="M631 1616 c-9 -11 -9 -16 0 -22 7 -4 9 -3 5 4 -3 5 0 12 6 15 7 2 10
7 7 11 -3 4 -12 0 -18 -8z"/>
<path d="M830 1629 c0 -5 5 -7 10 -4 6 3 10 8 10 11 0 2 -4 4 -10 4 -5 0 -10
-5 -10 -11z"/>
<path d="M1559 1603 c-13 -16 -12 -17 4 -4 9 7 17 15 17 17 0 8 -8 3 -21 -13z"/>
<path d="M805 1593 c-5 -13 -9 -14 -12 -5 -4 10 -8 10 -18 2 -8 -6 -11 -19 -8
-27 4 -10 2 -14 -4 -10 -15 9 -50 -23 -58 -53 l-7 -25 22 28 c12 15 27 24 33
20 20 -12 69 -8 80 7 9 12 9 13 -3 3 -9 -8 -19 -9 -32 -2 -10 5 -24 7 -31 3
-8 -5 -8 -3 1 9 8 9 11 21 7 27 -3 5 -2 10 4 10 5 0 13 -5 17 -12 5 -7 10 -3
16 12 10 27 4 39 -7 13z"/>
<path d="M620 1540 c8 -5 22 -9 30 -9 10 0 8 3 -5 9 -27 12 -43 12 -25 0z"/>
<path d="M863 1535 c-3 -9 -3 -18 -1 -21 3 -3 8 4 11 16 6 23 -1 27 -10 5z"/>
<path d="M1568 1513 c7 -3 16 -2 19 1 4 3 -2 6 -13 5 -11 0 -14 -3 -6 -6z"/>
<path d="M860 1491 c0 -6 4 -13 10 -16 6 -3 7 1 4 9 -7 18 -14 21 -14 7z"/>
<path d="M736 1477 c-11 -8 -16 -20 -13 -28 4 -11 6 -11 6 2 1 9 11 21 24 27
12 6 17 11 11 11 -5 1 -18 -5 -28 -12z"/>
<path d="M805 1470 c-4 -6 -3 -10 2 -9 24 4 53 -2 53 -12 0 -5 -4 -7 -10 -4
-5 3 -10 -3 -10 -13 0 -11 6 -22 14 -25 10 -4 13 3 12 25 -1 21 -8 34 -21 39
-28 11 -33 10 -40 -1z"/>
<path d="M720 1420 c0 -5 5 -10 11 -10 5 0 7 5 4 10 -3 6 -8 10 -11 10 -2 0
-4 -4 -4 -10z"/>
<path d="M790 1410 c-13 -8 -12 -10 3 -10 9 0 17 5 17 10 0 12 -1 12 -20 0z"/>
<path d="M850 1376 c0 -2 7 -7 16 -10 8 -3 12 -2 9 4 -6 10 -25 14 -25 6z"/>
<path d="M4303 3523 c4 -3 1 -13 -6 -22 -11 -14 -10 -14 5 -2 16 12 16 31 1
31 -4 0 -3 -3 0 -7z"/>
<path d="M4236 3505 c-17 -13 -18 -17 -6 -28 8 -6 11 -8 7 -3 -4 5 0 18 10 28
19 22 15 23 -11 3z"/>
<path d="M4515 3510 c-3 -5 -1 -10 4 -10 6 0 11 5 11 10 0 6 -2 10 -4 10 -3 0
-8 -4 -11 -10z"/>
<path d="M4354 3482 c3 -6 -1 -15 -10 -20 -15 -8 -14 -10 2 -16 10 -4 15 -4
11 0 -4 4 -2 13 4 20 7 8 6 14 -2 20 -7 4 -9 3 -5 -4z"/>
<path d="M4188 3463 c6 -2 18 -2 25 0 6 3 1 5 -13 5 -14 0 -19 -2 -12 -5z"/>
<path d="M4126 3452 c-2 -4 4 -8 14 -8 10 0 16 4 14 8 -3 4 -9 8 -14 8 -5 0
-11 -4 -14 -8z"/>
<path d="M4420 3450 c-9 -6 -10 -10 -3 -10 6 0 15 5 18 10 8 12 4 12 -15 0z"/>
<path d="M4290 3446 c0 -2 7 -9 15 -16 9 -7 15 -8 15 -2 0 5 -7 12 -15 16 -8
3 -15 4 -15 2z"/>
<path d="M4370 3430 c-8 -5 -12 -12 -9 -15 4 -3 12 1 19 10 14 17 11 19 -10 5z"/>
<path d="M4448 3408 c7 -7 12 -21 12 -32 0 -10 3 -17 6 -13 10 10 -5 57 -18
57 -9 0 -9 -3 0 -12z"/>
<path d="M4303 3402 c-7 -4 -9 -13 -4 -21 6 -9 10 -7 14 8 3 12 4 21 4 21 -1
0 -7 -4 -14 -8z"/>
<path d="M4627 3389 c6 -6 9 -19 6 -28 -4 -14 -3 -14 6 -1 15 21 14 27 -6 35
-14 5 -15 3 -6 -6z"/>
<path d="M4184 3341 c0 -16 4 -17 23 -10 17 6 23 5 23 -6 0 -8 11 -26 25 -41
14 -15 25 -22 25 -15 0 6 -6 14 -14 17 -9 3 -12 12 -9 21 4 10 2 14 -4 10 -6
-4 -14 5 -18 20 -5 20 -9 23 -15 13 -6 -10 -12 -11 -22 -2 -11 8 -14 7 -14 -7z"/>
<path d="M4449 3333 c-13 -16 -12 -17 4 -4 16 13 21 21 13 21 -2 0 -10 -8 -17
-17z"/>
<path d="M4156 3327 c3 -10 9 -15 12 -12 3 3 0 11 -7 18 -10 9 -11 8 -5 -6z"/>
<path d="M4270 3316 c0 -2 7 -7 16 -10 8 -3 12 -2 9 4 -6 10 -25 14 -25 6z"/>
<path d="M4427 3302 c3 -12 -4 -25 -22 -36 -26 -17 -51 -13 -39 6 4 7 2 8 -5
4 -15 -10 -5 -25 25 -36 25 -10 64 5 64 24 0 5 -9 1 -20 -9 -11 -10 -22 -16
-25 -13 -3 3 4 13 15 23 21 19 26 40 11 49 -5 4 -7 -2 -4 -12z"/>
<path d="M4320 3280 c0 -5 5 -10 11 -10 5 0 7 5 4 10 -3 6 -8 10 -11 10 -2 0
-4 -4 -4 -10z"/>
<path d="M4108 3262 c4 -10 7 -12 10 -4 2 7 9 9 15 5 7 -3 8 -2 4 2 -14 16
-36 14 -29 -3z"/>
<path d="M4240 3260 c0 -5 5 -10 11 -10 5 0 7 5 4 10 -3 6 -8 10 -11 10 -2 0
-4 -4 -4 -10z"/>
<path d="M4296 3249 c2 -4 -2 -10 -8 -12 -9 -4 -7 -6 3 -6 9 -1 21 5 27 12 8
10 6 13 -8 13 -10 0 -17 -3 -14 -7z"/>
<path d="M4120 3231 c0 -6 4 -13 10 -16 6 -3 7 1 4 9 -7 18 -14 21 -14 7z"/>
<path d="M4336 3233 c7 -4 14 -17 17 -28 5 -16 5 -15 4 4 -1 14 -9 26 -17 28
-10 3 -11 2 -4 -4z"/>
<path d="M4247 3202 c-15 -16 -15 -19 -2 -19 8 0 13 3 10 5 -3 3 0 11 6 19 17
20 5 16 -14 -5z"/>
<path d="M4286 3202 c-2 -4 -1 -14 4 -22 5 -9 5 -19 -2 -27 -7 -9 -7 -13 0
-13 15 0 22 25 11 41 -6 10 -2 16 14 21 l22 6 -22 1 c-12 1 -24 -3 -27 -7z"/>
<path d="M4383 3202 c17 -7 16 -9 -3 -29 -20 -22 -12 -40 14 -30 18 7 41 -72
32 -110 -4 -18 -3 -23 3 -13 14 24 24 108 10 90 -9 -12 -10 -11 -6 8 6 24 -17
43 -43 34 -12 -4 -11 0 2 20 18 27 15 38 -11 37 -13 0 -13 -2 2 -7z"/>
<path d="M4601 3164 c0 -11 3 -14 6 -6 3 7 2 16 -1 19 -3 4 -6 -2 -5 -13z"/>
<path d="M4320 3160 c0 -5 7 -7 15 -4 8 4 15 8 15 10 0 2 -7 4 -15 4 -8 0 -15
-4 -15 -10z"/>
<path d="M4649 3133 c-13 -16 -12 -17 4 -4 16 13 21 21 13 21 -2 0 -10 -8 -17
-17z"/>
<path d="M4525 3130 c-4 -6 -11 -8 -16 -5 -5 4 -9 1 -9 -4 0 -6 4 -11 9 -11
14 0 8 -65 -8 -84 -7 -8 -11 -22 -7 -31 3 -8 0 -14 -7 -12 -7 1 -11 -6 -9 -15
2 -10 -3 -18 -11 -18 -7 0 -22 -7 -33 -16 -18 -15 -18 -15 3 -5 12 6 39 12 60
12 23 1 29 3 16 6 -24 5 -32 23 -10 23 6 -1 29 -7 50 -14 20 -8 37 -10 37 -5
0 5 -11 11 -25 15 -27 7 -34 24 -10 24 8 0 15 4 15 9 0 6 -16 7 -36 4 l-36 -6
16 25 c9 14 35 38 57 54 22 15 45 37 51 48 10 19 10 20 -5 7 -14 -11 -17 -11
-17 0 -1 8 -10 -3 -21 -23 -25 -49 -49 -51 -45 -3 3 37 1 41 -9 25z"/>
<path d="M4318 3116 c-10 -7 -18 -17 -18 -21 0 -5 9 0 19 9 11 10 25 15 32 10
8 -4 10 -3 5 4 -9 15 -17 15 -38 -2z"/>
<path d="M4380 3101 c0 -6 4 -13 10 -16 6 -3 7 1 4 9 -7 18 -14 21 -14 7z"/>
<path d="M4100 3094 c0 -5 19 -22 43 -38 23 -16 36 -23 30 -16 -9 10 -10 17
-2 27 8 9 8 13 1 13 -6 0 -12 -6 -15 -12 -3 -9 -13 -5 -31 11 -14 14 -26 20
-26 15z"/>
<path d="M4251 3034 c0 -11 3 -14 6 -6 3 7 2 16 -1 19 -3 4 -6 -2 -5 -13z"/>
<path d="M4320 3035 c-11 -13 -15 -13 -22 -3 -6 8 -7 4 -3 -12 4 -14 12 -29
17 -35 6 -6 7 -4 2 8 -4 11 0 25 11 37 10 11 16 20 13 20 -3 0 -11 -7 -18 -15z"/>
<path d="M4350 3041 c0 -6 7 -14 15 -17 8 -4 15 -16 16 -28 0 -20 1 -20 9 -1
11 25 12 41 3 32 -3 -4 -15 0 -25 10 -11 10 -18 12 -18 4z"/>
<path d="M4604 2985 c36 -19 47 -19 22 0 -11 8 -27 15 -35 15 -9 0 -3 -7 13
-15z"/>
<path d="M4110 2955 c-14 -8 -20 -14 -14 -15 5 0 19 7 30 15 24 18 16 19 -16
0z"/>
<path d="M4331 2932 c-1 -16 -5 -21 -13 -16 -9 5 -9 2 1 -9 19 -24 36 -21 55
11 l17 27 -20 -22 c-25 -29 -29 -29 -34 5 -3 23 -4 23 -6 4z"/>
<path d="M4241 2937 c2 -1 13 -9 24 -17 19 -14 19 -14 6 3 -7 9 -18 17 -24 17
-6 0 -8 -1 -6 -3z"/>
<path d="M3967 2909 c4 -13 8 -18 11 -10 2 7 -1 18 -6 23 -8 8 -9 4 -5 -13z"/>
<path d="M4015 2919 c-4 -6 -5 -12 -2 -15 2 -3 7 2 10 11 7 17 1 20 -8 4z"/>
<path d="M4389 2903 c-13 -16 -12 -17 4 -4 16 13 21 21 13 21 -2 0 -10 -8 -17
-17z"/>
<path d="M4536 2903 c-3 -4 1 -14 10 -24 9 -10 14 -26 12 -36 -3 -15 -9 -12
-42 20 -22 20 -43 37 -48 37 -5 0 -2 -7 6 -16 9 -8 16 -25 16 -37 0 -16 -3
-18 -9 -8 -7 11 -9 11 -14 0 -4 -10 -6 -9 -6 4 -1 23 -56 24 -65 1 -4 -9 -9
-14 -13 -11 -3 4 -12 -1 -19 -11 -22 -29 -16 -32 12 -7 29 27 68 26 90 -1 15
-19 30 -18 38 2 5 13 14 15 42 9 23 -4 34 -3 30 4 -3 5 -2 11 2 13 5 1 -2 17
-14 35 -12 18 -24 29 -28 26z"/>
<path d="M4194 2878 l-19 -23 23 19 c21 18 27 26 19 26 -2 0 -12 -10 -23 -22z"/>
<path d="M4335 2869 c-4 -6 -5 -12 -2 -15 2 -3 7 2 10 11 7 17 1 20 -8 4z"/>
<path d="M4106 2851 c-4 -5 3 -7 14 -4 23 6 26 13 6 13 -8 0 -17 -4 -20 -9z"/>
<path d="M4144 2828 l-19 -23 23 19 c12 11 22 21 22 23 0 8 -8 2 -26 -19z"/>
<path d="M4223 2835 c0 -8 4 -12 9 -9 5 3 6 10 3 15 -9 13 -12 11 -12 -6z"/>
<path d="M4264 2838 c-4 -7 -3 -8 4 -4 6 4 24 -1 39 -10 l28 -16 -24 21 c-26
24 -37 26 -47 9z"/>
<path d="M4274 2758 c-4 -7 -3 -10 1 -5 5 4 18 -1 29 -10 21 -18 21 -18 2 5
-22 26 -23 26 -32 10z"/>
<path d="M3931 2748 c-1 -23 25 -23 33 -2 5 14 4 15 -8 5 -11 -9 -15 -9 -19 1
-4 8 -6 7 -6 -4z"/>
<path d="M4116 2748 c3 -5 10 -6 15 -3 13 9 11 12 -6 12 -8 0 -12 -4 -9 -9z"/>
<path d="M4580 2721 c0 -6 4 -12 8 -15 5 -3 9 1 9 9 0 8 -4 15 -9 15 -4 0 -8
-4 -8 -9z"/>
<path d="M3909 2706 c7 -8 9 -21 5 -27 -4 -8 -3 -9 4 -5 17 10 15 33 -4 40
-14 5 -15 4 -5 -8z"/>
<path d="M4010 2709 c0 -5 5 -7 10 -4 6 3 10 8 10 11 0 2 -4 4 -10 4 -5 0 -10
-5 -10 -11z"/>
<path d="M4160 2713 c0 -15 18 -35 23 -27 3 5 -1 15 -9 22 -8 7 -14 9 -14 5z"/>
<path d="M4051 2694 c0 -11 3 -14 6 -6 3 7 2 16 -1 19 -3 4 -6 -2 -5 -13z"/>
<path d="M4654 2681 c5 -8 0 -14 -13 -18 -12 -3 -21 -10 -21 -15 0 -6 7 -7 16
-4 9 3 23 6 32 7 11 0 12 2 4 6 -6 2 -10 9 -7 13 3 5 0 12 -6 16 -8 5 -9 3 -5
-5z"/>
<path d="M4059 2663 c-13 -16 -12 -17 4 -4 16 13 21 21 13 21 -2 0 -10 -8 -17
-17z"/>
<path d="M3939 2657 c6 -8 7 -18 3 -22 -4 -5 -1 -5 6 -1 10 6 10 11 1 22 -6 8
-14 14 -16 14 -3 0 0 -6 6 -13z"/>
<path d="M4100 2656 c0 -9 5 -16 10 -16 6 0 10 4 10 9 0 6 -4 13 -10 16 -5 3
-10 -1 -10 -9z"/>
<path d="M3970 2656 c0 -2 8 -10 18 -17 15 -13 16 -12 3 4 -13 16 -21 21 -21
13z"/>
<path d="M4478 2491 c-16 -22 -28 -49 -28 -61 0 -12 -4 -18 -10 -15 -5 3 -10
14 -10 24 0 10 -7 18 -15 18 -12 0 -11 -5 3 -29 21 -37 49 -62 39 -35 -3 9 -3
17 2 17 5 0 9 6 8 13 -1 30 4 48 11 43 8 -4 17 9 40 57 2 4 0 7 -5 7 -4 0 -20
-18 -35 -39z"/>
<path d="M4348 2473 c7 -3 16 -2 19 1 4 3 -2 6 -13 5 -11 0 -14 -3 -6 -6z"/>
<path d="M4344 2401 c20 -22 26 -25 26 -13 0 4 -10 13 -22 21 -23 14 -23 14
-4 -8z"/>
<path d="M4371 2358 c-1 -9 -11 -24 -23 -32 -12 -9 -18 -16 -12 -16 17 0 47
38 41 52 -4 9 -6 7 -6 -4z"/>
<path d="M4186 2327 c3 -10 9 -15 12 -12 3 3 0 11 -7 18 -10 9 -11 8 -5 -6z"/>
<path d="M4522 2283 c-17 -12 -25 -13 -36 -4 -10 8 -16 8 -24 -1 -19 -23 52
-21 73 2 21 24 18 25 -13 3z"/>
<path d="M4275 2270 c-3 -6 1 -7 9 -4 18 7 21 14 7 14 -6 0 -13 -4 -16 -10z"/>
<path d="M4377 2273 c-3 -5 5 -8 18 -8 13 0 21 3 18 8 -2 4 -10 7 -18 7 -8 0
-16 -3 -18 -7z"/>
<path d="M4353 2200 c-6 -17 -8 -30 -3 -30 8 0 24 50 18 56 -2 2 -9 -10 -15
-26z"/>
<path d="M4339 2147 c6 -8 7 -18 3 -22 -4 -5 -1 -5 6 -1 10 6 10 11 1 22 -6 8
-14 14 -16 14 -3 0 0 -6 6 -13z"/>
<path d="M4141 2127 c-13 -21 -12 -21 5 -5 10 10 16 20 13 22 -3 3 -11 -5 -18
-17z"/>
<path d="M4436 2133 c-6 -14 -5 -15 5 -6 7 7 10 15 7 18 -3 3 -9 -2 -12 -12z"/>
<path d="M3794 2106 c11 -9 24 -16 30 -16 12 0 7 5 -24 19 -24 11 -24 11 -6
-3z"/>
<path d="M4284 2101 c0 -10 6 -18 13 -18 7 0 13 4 13 7 0 4 -6 12 -13 18 -10
8 -13 6 -13 -7z"/>
<path d="M4428 2069 c-10 -23 -22 -38 -28 -34 -6 4 -10 3 -9 -2 1 -4 1 -16 0
-26 -1 -15 -4 -16 -22 -6 -13 7 -19 7 -15 1 4 -6 -1 -15 -10 -20 -15 -8 -15
-10 0 -15 10 -4 14 -3 11 2 -8 14 14 24 28 12 10 -7 13 -5 14 10 2 23 22 51
32 45 3 -2 15 6 26 17 15 15 16 19 4 14 -12 -4 -15 0 -11 19 6 35 -1 29 -20
-17z"/>
<path d="M3871 2086 c-9 -10 -7 -17 6 -27 16 -12 17 -12 6 2 -10 12 -10 18 -1
27 7 7 9 12 6 12 -3 0 -11 -6 -17 -14z"/>
<path d="M4390 2091 c0 -6 4 -13 10 -16 6 -3 7 1 4 9 -7 18 -14 21 -14 7z"/>
<path d="M4531 2084 c0 -11 3 -14 6 -6 3 7 2 16 -1 19 -3 4 -6 -2 -5 -13z"/>
<path d="M4303 2043 c4 -3 1 -13 -6 -22 -11 -14 -10 -14 5 -2 16 12 16 31 1
31 -4 0 -3 -3 0 -7z"/>
<path d="M3820 2031 c0 -10 19 -25 25 -20 1 2 -3 10 -11 17 -8 7 -14 8 -14 3z"/>
<path d="M4106 2025 c-9 -26 -7 -32 5 -12 6 10 9 21 6 23 -2 3 -7 -2 -11 -11z"/>
<path d="M4236 2025 c-17 -13 -18 -17 -6 -28 8 -6 11 -8 7 -3 -4 5 0 18 10 28
19 22 15 23 -11 3z"/>
<path d="M3686 2007 c3 -10 9 -15 12 -12 3 3 0 11 -7 18 -10 9 -11 8 -5 -6z"/>
<path d="M4188 1983 c6 -2 18 -2 25 0 6 3 1 5 -13 5 -14 0 -19 -2 -12 -5z"/>
<path d="M4126 1972 c-2 -4 4 -8 14 -8 10 0 16 4 14 8 -3 4 -9 8 -14 8 -5 0
-11 -4 -14 -8z"/>
<path d="M4290 1966 c0 -2 7 -9 15 -16 9 -7 15 -8 15 -2 0 5 -7 12 -15 16 -8
3 -15 4 -15 2z"/>
<path d="M4370 1950 c-8 -5 -12 -12 -9 -15 4 -3 12 1 19 10 14 17 11 19 -10 5z"/>
<path d="M4009 1922 c-15 -13 -19 -21 -10 -26 6 -4 10 -3 9 3 -2 5 6 17 17 25
11 8 17 16 14 16 -4 0 -17 -8 -30 -18z"/>
<path d="M4303 1922 c-7 -4 -9 -13 -4 -21 6 -9 10 -7 14 8 3 12 4 21 4 21 -1
0 -7 -4 -14 -8z"/>
<path d="M4371 1904 c0 -11 3 -14 6 -6 3 7 2 16 -1 19 -3 4 -6 -2 -5 -13z"/>
<path d="M4184 1861 c0 -16 4 -17 23 -10 17 6 23 5 23 -6 0 -8 11 -26 25 -41
14 -15 25 -22 25 -15 0 6 -6 14 -14 17 -9 3 -12 12 -9 21 4 10 2 14 -4 10 -6
-4 -14 5 -18 20 -5 20 -9 23 -15 13 -6 -10 -12 -11 -22 -2 -11 8 -14 7 -14 -7z"/>
<path d="M4439 1854 c-7 -9 -13 -24 -14 -35 -2 -21 -34 -50 -50 -45 -5 2 -9 9
-7 15 1 7 -2 10 -8 6 -15 -9 -13 -14 21 -34 31 -19 31 -19 52 2 12 12 16 22
10 24 -14 5 -5 42 15 66 8 9 10 17 5 17 -6 0 -16 -7 -24 -16z m-14 -83 c-3 -6
-11 -11 -17 -11 -6 0 -6 6 2 15 14 17 26 13 15 -4z"/>
<path d="M3810 1850 c0 -5 5 -10 11 -10 5 0 7 5 4 10 -3 6 -8 10 -11 10 -2 0
-4 -4 -4 -10z"/>
<path d="M4156 1847 c3 -10 9 -15 12 -12 3 3 0 11 -7 18 -10 9 -11 8 -5 -6z"/>
<path d="M3937 1829 c4 -13 8 -18 11 -10 2 7 -1 18 -6 23 -8 8 -9 4 -5 -13z"/>
<path d="M3685 1829 c-4 -6 -5 -12 -2 -15 2 -3 7 2 10 11 7 17 1 20 -8 4z"/>
<path d="M4270 1836 c0 -2 7 -7 16 -10 8 -3 12 -2 9 4 -6 10 -25 14 -25 6z"/>
<path d="M4320 1800 c0 -5 5 -10 11 -10 5 0 7 5 4 10 -3 6 -8 10 -11 10 -2 0
-4 -4 -4 -10z"/>
<path d="M3814 1781 c0 -11 5 -17 13 -14 10 4 11 9 2 19 -15 18 -15 18 -15 -5z"/>
<path d="M4108 1782 c4 -10 7 -12 10 -4 2 7 9 9 15 5 7 -3 8 -2 4 2 -14 16
-36 14 -29 -3z"/>
<path d="M4240 1780 c0 -5 5 -10 11 -10 5 0 7 5 4 10 -3 6 -8 10 -11 10 -2 0
-4 -4 -4 -10z"/>
<path d="M4296 1769 c2 -4 -2 -10 -8 -12 -9 -4 -7 -6 3 -6 9 -1 21 5 27 12 8
10 6 13 -8 13 -10 0 -17 -3 -14 -7z"/>
<path d="M4120 1751 c0 -6 4 -13 10 -16 6 -3 7 1 4 9 -7 18 -14 21 -14 7z"/>
<path d="M4336 1753 c7 -4 14 -17 17 -28 5 -16 5 -15 4 4 -1 14 -9 26 -17 28
-10 3 -11 2 -4 -4z"/>
<path d="M4247 1722 c-15 -16 -15 -19 -2 -19 8 0 13 3 10 5 -3 3 0 11 6 19 17
20 5 16 -14 -5z"/>
<path d="M4286 1722 c-2 -4 -1 -14 4 -22 5 -9 5 -19 -2 -27 -7 -9 -7 -13 0
-13 15 0 22 25 11 41 -6 10 -2 16 14 21 l22 6 -22 1 c-12 1 -24 -3 -27 -7z"/>
<path d="M4383 1721 c17 -6 17 -8 -2 -25 -23 -21 -19 -36 9 -36 23 0 44 -59
36 -103 -4 -21 -3 -27 3 -17 5 8 12 36 16 61 6 41 4 48 -15 62 -12 9 -30 13
-39 9 -14 -5 -14 -3 2 21 22 34 22 37 -5 36 -20 0 -21 -1 -5 -8z"/>
<path d="M4320 1680 c0 -5 7 -7 15 -4 8 4 15 8 15 10 0 2 -7 4 -15 4 -8 0 -15
-4 -15 -10z"/>
<path d="M4318 1636 c-10 -7 -18 -17 -18 -21 0 -5 9 0 19 9 11 10 25 15 32 10
8 -4 10 -3 5 4 -9 15 -17 15 -38 -2z"/>
<path d="M4380 1621 c0 -6 4 -13 10 -16 6 -3 7 1 4 9 -7 18 -14 21 -14 7z"/>
<path d="M4320 1555 c-11 -13 -15 -13 -22 -3 -6 8 -7 4 -3 -12 4 -14 12 -29
17 -35 6 -6 7 -4 2 8 -4 11 0 25 11 37 10 11 16 20 13 20 -3 0 -11 -7 -18 -15z"/>
<path d="M4350 1561 c0 -6 7 -14 15 -17 8 -4 15 -16 16 -28 0 -20 1 -20 9 -1
11 25 12 41 3 32 -3 -4 -15 0 -25 10 -11 10 -18 12 -18 4z"/>
<path d="M4406 1503 c-6 -14 -5 -15 5 -6 7 7 10 15 7 18 -3 3 -9 -2 -12 -12z"/>
<path d="M4331 1452 c-1 -16 -5 -21 -13 -16 -9 5 -9 2 1 -9 19 -24 36 -21 55
11 l17 27 -20 -22 c-25 -29 -29 -29 -34 5 -3 23 -4 23 -6 4z"/>
<path d="M4241 1457 c2 -1 13 -9 24 -17 19 -14 19 -14 6 3 -7 9 -18 17 -24 17
-6 0 -8 -1 -6 -3z"/>
<path d="M4389 1423 c-13 -16 -12 -17 4 -4 9 7 17 15 17 17 0 8 -8 3 -21 -13z"/>
<path d="M4518 1291 c-18 -22 -18 -83 0 -89 7 -2 12 0 11 5 -4 25 3 41 21 46
22 6 46 -25 34 -45 -4 -7 -3 -8 4 -4 15 9 16 63 1 71 -6 4 -8 14 -5 22 5 13 2
13 -20 -2 -15 -9 -24 -12 -20 -7 12 19 -10 21 -26 3z"/>
<path d="M4601 1273 c7 -12 15 -20 18 -17 3 2 -3 12 -13 22 -17 16 -18 16 -5
-5z"/>
<path d="M676 3524 c-9 -23 -2 -28 13 -10 7 8 8 17 3 20 -6 3 -13 -1 -16 -10z"/>
<path d="M686 3154 c-4 -10 -1 -14 6 -12 15 5 23 28 10 28 -5 0 -13 -7 -16
-16z"/>
<path d="M705 3139 c-10 -15 3 -25 16 -12 7 7 7 13 1 17 -6 3 -14 1 -17 -5z"/>
<path d="M720 3096 c0 -8 5 -18 10 -21 6 -3 10 1 10 9 0 8 -4 18 -10 21 -5 3
-10 -1 -10 -9z"/>
<path d="M700 3068 c0 -18 18 -34 28 -24 3 4 -2 14 -11 23 -16 16 -17 16 -17
1z"/>
<path d="M736 2957 c-11 -8 -16 -20 -13 -28 4 -11 6 -11 6 2 1 9 11 21 24 27
12 6 17 11 11 11 -5 1 -18 -5 -28 -12z"/>
<path d="M720 2900 c0 -5 5 -10 11 -10 5 0 7 5 4 10 -3 6 -8 10 -11 10 -2 0
-4 -4 -4 -10z"/>
<path d="M676 2044 c-9 -23 -2 -28 13 -10 7 8 8 17 3 20 -6 3 -13 -1 -16 -10z"/>
<path d="M3823 1535 c-3 -9 -3 -18 -1 -21 3 -3 8 4 11 16 6 23 -1 27 -10 5z"/>
<path d="M3736 1532 c-3 -5 1 -9 9 -9 8 0 12 4 9 9 -3 4 -7 8 -9 8 -2 0 -6 -4
-9 -8z"/>
<path d="M3872 1515 c0 -16 2 -22 5 -12 2 9 2 23 0 30 -3 6 -5 -1 -5 -18z"/>
<path d="M1435 1469 c-10 -19 -28 -47 -41 -62 -13 -15 -33 -60 -45 -100 -11
-40 -26 -77 -31 -84 -5 -7 -7 -17 -3 -22 18 -30 -6 -311 -26 -311 -5 0 -9 7
-9 15 0 8 -23 75 -51 148 -54 142 -54 137 -17 240 24 64 -50 127 -101 86 -26
-21 -61 -25 -78 -8 -8 8 -20 -2 -43 -36 -25 -37 -32 -58 -35 -108 -2 -34 -10
-115 -19 -180 -17 -128 -18 -145 -6 -107 5 15 8 -40 9 -137 1 -96 5 -164 11
-168 17 -11 12 -83 -7 -95 -17 -11 -17 -11 0 -6 10 3 23 6 28 6 5 0 9 6 9 13
0 8 11 24 25 37 17 16 22 27 15 35 -7 8 -5 27 4 56 7 24 18 62 24 84 6 22 16
60 22 85 l13 45 19 -45 c53 -119 116 -233 143 -259 l30 -30 62 21 c59 20 62
22 82 72 31 78 70 306 81 472 5 82 12 172 16 201 5 46 3 58 -29 114 l-35 62
-17 -34z"/>
<path d="M1829 1451 c-25 -16 -53 -40 -62 -55 -10 -14 -24 -26 -31 -26 -22 0
-65 -57 -59 -79 4 -16 -21 -95 -92 -288 -6 -18 -22 -45 -36 -60 -13 -14 -18
-23 -11 -19 10 6 12 -31 10 -193 l-3 -202 30 7 c39 8 45 12 45 30 0 8 4 22 9
32 5 9 17 44 26 77 34 122 32 119 77 136 84 31 108 37 113 28 3 -5 5 -57 4
-116 -1 -92 2 -115 20 -156 12 -26 23 -47 25 -47 2 0 28 30 58 67 l55 68 13
130 c7 74 19 141 28 156 13 23 13 29 -1 50 -10 17 -15 49 -15 105 0 44 -3 96
-7 115 -19 93 -25 107 -55 119 -29 12 -29 12 -14 48 l15 36 -38 33 c-21 18
-42 32 -48 32 -5 1 -31 -12 -56 -28z m16 -389 c4 -50 4 -50 -28 -55 -18 -2
-33 -4 -35 -2 -4 4 28 88 40 102 15 19 18 13 23 -45z"/>
<path d="M2238 1464 c-16 -8 -28 -17 -28 -20 0 -3 5 -2 10 1 13 8 10 -838 -3
-870 -4 -11 -1 -6 7 10 8 17 20 56 27 88 6 31 14 57 18 57 3 0 38 -24 76 -52
100 -75 162 -113 224 -138 30 -11 65 -30 79 -40 14 -11 34 -20 45 -20 11 0 47
-13 81 -29 99 -48 157 -71 177 -71 23 0 52 42 43 64 -3 9 -45 42 -93 73 -47
31 -110 75 -140 97 -29 23 -77 59 -107 81 -158 119 -283 216 -289 224 -3 6 27
26 67 45 123 59 190 107 226 160 37 55 40 90 14 156 -29 75 -50 96 -132 130
-14 5 -32 14 -40 19 -80 47 -209 65 -262 35z m188 -215 c17 -19 16 -20 -11
-49 -29 -31 -113 -75 -123 -65 -3 3 0 35 7 71 10 48 11 68 2 77 -23 23 -9 25
48 6 32 -11 67 -29 77 -40z"/>
<path d="M2340 1243 c0 -10 -3 -28 -6 -40 -8 -29 4 -29 41 1 32 26 29 38 -12
51 -18 5 -23 2 -23 -12z"/>
<path d="M3220 1416 c-40 -21 -47 -30 -64 -82 -10 -33 -21 -66 -23 -74 -3 -8
-13 -52 -24 -97 -42 -190 -81 -310 -111 -347 -33 -40 -43 -44 -53 -18 -11 29
-33 167 -28 175 3 5 5 28 4 50 0 23 4 65 9 92 17 86 18 118 5 155 -23 65 -104
127 -129 99 -8 -9 -8 -10 2 -5 9 6 12 -70 12 -366 0 -244 -4 -368 -10 -358 -5
8 -10 10 -10 4 0 -16 28 -38 85 -67 l50 -25 40 29 c22 15 43 28 46 29 4 0 21
-22 39 -50 18 -27 34 -50 36 -50 13 0 90 45 97 56 4 7 13 19 21 26 28 29 37
57 24 77 -18 29 15 264 53 383 21 63 43 218 42 286 0 33 -7 50 -29 73 -15 16
-30 29 -33 29 -3 -1 -26 -12 -51 -24z"/>
<path d="M3537 1390 c-104 -15 -108 -16 -127 -48 -12 -19 -16 -31 -10 -27 6 4
10 -22 10 -75 0 -59 -3 -79 -12 -74 -7 4 -8 3 -4 -4 4 -6 12 -9 19 -7 7 2 23
6 37 9 14 2 37 7 53 11 30 8 35 -3 15 -35 -9 -13 -9 -23 -2 -30 6 -6 7 -39 2
-93 -4 -45 -12 -129 -17 -187 -13 -136 -1 -265 25 -285 34 -26 54 -27 88 -6
30 19 76 101 57 101 -10 0 -4 129 9 198 6 28 15 76 20 105 22 113 30 172 30
212 0 41 1 42 37 43 21 1 45 10 58 22 18 17 20 27 15 68 -8 60 -25 90 -57 103
-43 16 -132 16 -246 -1z"/>
<path d="M3964 1328 c-34 -38 -64 -90 -64 -111 0 -7 -7 -28 -15 -44 -21 -43
-45 -124 -34 -117 5 3 9 -89 9 -221 0 -162 -3 -224 -11 -219 -8 4 -8 1 -1 -12
39 -73 156 -93 257 -44 46 22 161 120 188 159 9 14 35 49 57 76 47 59 59 93
67 201 10 137 -22 226 -110 313 -43 41 -48 43 -109 44 -42 1 -74 -4 -97 -16
-33 -16 -35 -16 -48 3 -21 29 -55 25 -89 -12z m214 -194 c33 -23 44 -50 49
-123 4 -57 1 -73 -21 -117 -14 -29 -26 -57 -26 -62 0 -19 -113 -112 -137 -112
-41 0 -54 37 -49 136 6 112 21 200 40 229 13 20 87 63 111 65 6 0 21 -7 33
-16z"/>
<path d="M4115 1106 c-62 -28 -80 -76 -90 -246 -5 -80 0 -110 17 -110 30 0
102 77 130 139 26 57 29 74 24 130 -3 39 -12 71 -22 82 -20 22 -20 22 -59 5z
m48 -141 c-3 -9 -8 -14 -10 -11 -3 3 -2 9 2 15 9 16 15 13 8 -4z"/>
<path d="M2695 1120 c-6 -19 -103 -110 -117 -110 -4 0 -35 -18 -69 -40 -34
-22 -68 -40 -76 -40 -23 0 -14 -18 25 -47 20 -15 73 -55 117 -90 44 -34 101
-78 128 -98 l47 -35 -5 32 c-3 17 -8 34 -10 38 -14 22 -27 164 -25 278 1 129
-2 153 -15 112z"/>
<path d="M911 884 c0 -11 3 -14 6 -6 3 7 2 16 -1 19 -3 4 -6 -2 -5 -13z"/>
<path d="M1828 4423 c7 -3 16 -2 19 1 4 3 -2 6 -13 5 -11 0 -14 -3 -6 -6z"/>
<path d="M1878 4413 c7 -3 16 -2 19 1 4 3 -2 6 -13 5 -11 0 -14 -3 -6 -6z"/>
<path d="M1953 4403 c9 -2 23 -2 30 0 6 3 -1 5 -18 5 -16 0 -22 -2 -12 -5z"/>
<path d="M3540 385 c-21 -34 -24 -35 -80 -35 -54 0 -60 -3 -80 -30 l-21 -30
57 0 58 0 -30 -31 c-16 -17 -51 -42 -78 -56 l-49 -25 20 -20 20 -20 44 22 c24
13 68 47 99 76 54 51 60 54 108 54 41 0 54 4 66 22 24 34 20 38 -34 38 l-51 0
16 30 c20 39 20 40 -14 40 -23 0 -34 -8 -51 -35z"/>
<path d="M3848 403 c-8 -10 -38 -56 -67 -102 -28 -45 -59 -93 -67 -106 -14
-21 -13 -24 12 -40 25 -16 28 -16 87 14 34 17 85 50 113 74 43 36 50 46 43 65
-5 12 -11 22 -13 22 -3 0 -35 -23 -72 -50 -36 -28 -68 -49 -71 -46 -2 2 18 39
44 83 27 43 53 84 57 91 12 20 -48 15 -66 -5z"/>
<path d="M4099 403 c-16 -19 -31 -43 -117 -180 l-52 -83 33 0 c31 0 38 6 79
73 49 78 59 82 109 46 26 -18 27 -18 44 1 21 24 16 32 -35 55 l-40 18 25 44
26 43 -29 0 c-16 0 -35 -8 -43 -17z"/>
<path d="M3785 392 c-23 -2 -36 -13 -55 -45 -14 -23 -55 -71 -92 -108 -65 -65
-66 -67 -48 -84 19 -17 21 -16 65 20 56 45 179 209 164 218 -2 1 -17 1 -34 -1z"/>
<path d="M3182 300 c-6 -11 -12 -22 -12 -25 0 -3 31 -5 69 -5 62 0 70 2 85 25
l16 25 -72 0 c-62 0 -75 -3 -86 -20z"/>
<path d="M4275 298 l-15 -23 61 -3 c72 -4 84 0 99 27 10 20 8 21 -59 21 -61 0
-72 -3 -86 -22z"/>
</g>
</svg>
